<svg id="svg" version="1.1" viewBox="0 0 300 300" width="300" height="300" xmlns="http://www.w3.org/2000/svg"><svg xmlns="http://www.w3.org/2000/svg"><defs><clipPath id="clip-1"><rect x="0" y="0" transform="scale(0.14648,0.14648)" width="2048" height="2048" fill="none"/></clipPath></defs><g clip-path="url(#clip-1)" fill="none" fill-rule="nonzero" stroke="none" stroke-width="1" stroke-linecap="butt" stroke-linejoin="miter" stroke-miterlimit="10" stroke-dasharray="" stroke-dashoffset="0" font-family="none" font-weight="none" font-size="none" text-anchor="none" style="mix-blend-mode: normal"><path d="M0,0h300v300h-300z" fill="#fafafe"/><path d="M113.87827,103.12236c2.04346,0.01172 6.56646,-0.1377 8.28838,0.11763c1.304,0.19321 4.97681,8.74614 5.61636,10.09673l7.05146,14.89102c1.23252,2.602 2.66997,5.85732 4.01836,8.35708c2.70015,-6.47432 5.83066,-13.18755 8.59541,-19.64619c0.94922,-2.21719 5.08887,-12.12056 6.33252,-13.5438c0.77197,-0.41411 8.52832,-0.4144 8.90771,-0.02329c-0.32812,0.91392 -4.03564,0.26499 -5.16797,1.71313c-1.48242,1.89653 -0.89209,4.97681 -0.78076,7.26885c0.13184,2.62896 0.23145,5.25937 0.29443,7.89097c-0.97119,1.58276 -2.76855,4.63286 -3.82764,5.9855c-0.26807,-5.82876 -0.48633,-11.66001 -0.65186,-17.49272c-1.80322,3.61816 -4.01514,9.24697 -5.68652,13.10083c-1.03154,2.68989 -8.6436,20.61899 -9.40679,21.22896l-0.37603,-0.10811c-0.88945,-0.93765 -4.67739,-9.44341 -5.53315,-11.26436l-10.52256,-22.44565c-0.27114,6.28359 -0.42554,12.57158 -0.46318,18.86089c-0.05156,3.54829 -0.61641,8.54531 0.36885,11.95078c0.68057,2.35225 3.16904,1.90093 4.95527,2.67964l0.07104,0.20859l-0.1998,0.18955c-0.64819,0.08569 -11.96675,-0.00542 -12.30615,-0.10371c1.45928,-1.90137 5.40322,0.97075 5.423,-7.81128c0.02168,-9.57979 0.47534,-19.28818 0.50654,-28.89097c-2.37334,-2.67378 -2.91123,-1.6481 -5.34521,-2.66748z" fill="#7862fe"/><path d="M168.90967,130.56035c1.71973,-0.03472 11.4126,-0.22925 12.49512,0.29912c-0.20508,1.05454 -23.11377,35.15713 -25.37695,38.5248c3.06885,0.20801 6.93457,0.15967 10.06934,0.08643c5.16943,-0.12012 13.55273,1.30664 15.61963,-4.93506c0.25049,-0.75293 0.63721,-1.94385 1.05908,-2.54297l0.21094,0.02197c0.2417,0.55371 0.11133,1.02393 0.03809,1.64355c-0.23437,2.19727 -0.46436,5.00098 -0.86426,7.11768c-1.49854,0.05566 -3.38232,0.05273 -4.87354,-0.0293c-8.63525,-0.47168 -17.9707,0.41602 -26.53711,-0.18604l-0.14502,-0.17139c0.12305,-1.02246 1.80029,-3.20508 2.44336,-4.16016l4.12939,-6.13477l12.28857,-18.25796c2.08008,-3.0854 4.95117,-7.09629 6.81885,-10.22666c-2.45361,-0.14443 -5.44189,0.1856 -7.6875,-0.01216c-0.09082,-0.42144 0.08203,-0.54141 0.31201,-1.03711z" fill="#7862fe"/><path d="M179.87549,198.07764c3.58594,-0.27686 6.71484,2.4126 6.98145,6c0.2666,3.5874 -2.43164,6.70898 -6.02051,6.96533c-3.57422,0.25488 -6.67969,-2.43018 -6.94482,-6.00293c-0.26514,-3.57275 2.41113,-6.68701 5.98389,-6.9624z" fill="#2e2d2e"/><path d="M180.01318,200.85352c4.66846,0.06592 5.04932,6.21387 0.95215,7.35938c-0.81299,-0.00439 -1.38428,0.05273 -2.14307,-0.36035c-1.91455,-1.0415 -2.35107,-3.73535 -1.22168,-5.50488c0.63281,-0.99023 1.28906,-1.24365 2.4126,-1.49414z" fill="#fafafe"/><path d="M79.66729,198.24463c1.19883,0.00293 2.3978,0.01904 3.59634,0.04541c1.04531,2.86523 2.4,5.81689 3.49175,8.72607c1.12778,-2.38916 2.55454,-6.23584 3.56953,-8.73779c1.14741,-0.04395 2.44219,-0.01904 3.60117,-0.0249l-0.00967,12.67969l-3.05596,0.00293l0.01099,-3.00146l-0.01934,-4.51465c-0.77754,1.62012 -2.21206,5.77295 -2.81074,7.51172l-2.49858,0.00439c-0.92183,-2.49463 -1.84849,-5.12256 -2.86523,-7.56738c-0.05464,2.44922 0.00161,5.09912 0.00645,7.56445l-3.03281,0.00439c-0.01904,-4.23047 -0.01377,-8.4624 0.01611,-12.69287z" fill="#2e2d2e"/><path d="M168.6167,114.89897c0.59912,0.23086 1.396,0.77812 1.96143,1.13291l-27.4333,44.32456c-0.50991,-0.16113 -1.44141,-0.8042 -1.9333,-1.11621c0.72744,-1.34912 2.00391,-3.27832 2.83198,-4.61719l5.29585,-8.55542c6.39404,-10.321 13.05322,-20.77778 19.27734,-31.16865z" fill="#01988b"/><path d="M193.96436,198.25195l3.03223,0.00293l5.20459,7.92041l-0.00586,-7.92187l3.04395,0.00732l-0.00439,12.66504l-3.03223,0.01025c-0.89502,-1.4502 -4.32275,-6.73096 -5.19727,-7.73877l0.00293,7.73584l-3.06299,0.00439z" fill="#2e2d2e"/><path d="M128.47749,198.25342h3.0375l0.00469,12.67529l-3.03545,0.00146c-1.72368,-2.64697 -3.53057,-5.24414 -5.20181,-7.92773l0.00029,7.93213h-3.05068l0.01714,-12.66797l3.03823,-0.00586c1.72178,2.60889 3.54258,5.29102 5.17852,7.94531c0.01772,-2.6499 0.02153,-5.30127 0.01157,-7.95264z" fill="#2e2d2e"/><path d="M143.84458,198.22119c3.51577,-0.24609 5.85513,0.57861 7.08706,4.07813l-3.34131,-0.00586c-0.60059,-0.79395 -1.87061,-1.58057 -2.8626,-1.37695c-4.6106,0.94775 -3.68921,8.57227 1.52607,7.28027c1.22373,-0.30322 1.64414,-1.12207 2.21836,-2.10645l-4.0207,-0.00293l0.00601,-2.24121l6.69243,0.00732c0.01758,1.40039 0.15527,2.45947 -0.45117,3.78662c-1.48096,3.2417 -5.53652,4.22461 -8.62148,2.71729c-1.52256,-0.73242 -2.66602,-2.07275 -3.14971,-3.69287c-1.20029,-4.01221 0.93354,-7.42383 4.91704,-8.44336z" fill="#2e2d2e"/><path d="M105.30073,198.20654l3.54639,0.00439c1.54219,4.23193 3.06123,8.47266 4.55728,12.7207l-3.21943,0.00586l-0.25898,-0.84375c-0.18896,-0.60352 -0.29136,-1.23486 -0.78765,-1.49268l-4.4521,-0.00146c-0.22749,0.75146 -0.53027,1.58643 -0.78281,2.33789l-3.19321,-0.00439z" fill="#2e2d2e"/><path d="M106.99131,201.81592c0.35156,0.3501 1.37256,3.64453 1.51992,4.29492c-0.28608,0.26074 -0.53672,0.16846 -1.04282,0.19043l-1.98457,-0.03223z" fill="#fafafe"/><path d="M212.8623,198.21094l7.75049,0.00146l0.00146,2.46094l-4.66846,0.00439l0.00439,2.61914l4.15723,-0.00293l-0.01758,2.35693c-0.87451,-0.01758 -3.21533,-0.20947 -3.99463,0.1582c-0.16846,0.0791 -0.1333,0.44531 -0.15234,0.69727l0.01025,1.94531h4.66113l-0.00146,2.48291h-7.75049z" fill="#2e2d2e"/><path d="M158.07568,198.31055l8.91357,-0.01172l-0.00586,2.28516c-1.396,2.24854 -3.8833,5.59131 -5.45947,7.83691l5.4624,0.00146v2.50781l-8.91211,0.00586c-0.01172,-0.88916 0.01025,-1.59082 0.06006,-2.47559l5.34375,-7.64648l-5.4082,-0.00586z" fill="#2e2d2e"/></g></svg></svg>