<svg id="svg" version="1.1" viewBox="0 0 300 300" width="300" height="300" xmlns="http://www.w3.org/2000/svg"><svg xmlns="http://www.w3.org/2000/svg"><defs><clipPath id="clip-1"><rect x="0" y="0" transform="scale(0.14648,0.14648)" width="2048" height="2048" fill="none"/></clipPath></defs><g clip-path="url(#clip-1)" fill="none" fill-rule="nonzero" stroke="none" stroke-width="1" stroke-linecap="butt" stroke-linejoin="miter" stroke-miterlimit="10" stroke-dasharray="" stroke-dashoffset="0" font-family="none" font-weight="none" font-size="none" text-anchor="none" style="mix-blend-mode: normal"><path d="M155.66309,84.84814c1.13525,-0.18853 10.79883,-0.28755 11.55469,0.03647l-0.06738,0.21709c-1.12793,0.50186 -2.729,0.28521 -3.97119,0.58638c-1.5249,0.36943 -2.95166,1.1335 -3.6665,2.59277c-1.03271,2.10923 -0.0791,12.79307 0.03955,15.67573c0.05566,1.35762 0.26514,2.89146 -0.05273,4.22065c-0.5332,2.22759 -3.61377,6.11704 -4.89697,8.24282c-0.19922,-4.43833 -0.2915,-8.84692 -0.57275,-13.29595c-0.20068,-3.16025 0.1084,-7.51128 -0.55078,-10.62129l-0.25928,0.41704c-1.23779,1.96831 -2.4126,5.20195 -3.35156,7.41343l-5.2582,12.24199c-0.95522,2.01929 -1.921,4.43643 -2.82964,6.52119c-1.78638,4.06553 -3.54961,8.14102 -5.28955,12.22661c-0.75337,1.7896 -2.90669,7.23267 -3.79731,8.64902l-0.36797,0.06021c-0.49043,-0.17124 -0.92959,-0.6498 -1.13057,-1.10962c-1.37593,-3.1459 -2.92749,-6.32988 -4.40054,-9.42231l-12.36226,-26.36528c-1.51787,-3.18457 -3.13037,-7.20938 -4.93125,-10.11416c-0.32871,1.99556 -0.13784,3.90981 -0.26895,5.90449c-0.37983,5.77749 -0.44194,11.60024 -0.53657,17.39473l-0.15527,9.65259c-0.06694,3.15483 -0.52354,8.12651 1.02876,10.98091c1.21465,2.23345 4.73862,2.46562 7.03931,3.02607c-2.2084,0.50215 -6.55415,0.21606 -8.9395,0.19907c-1.68823,-0.01216 -6.60352,0.24214 -7.97798,-0.08701c0.16641,-0.86807 5.29292,-0.47007 6.30117,-4.85361c0.81753,-3.5543 0.65552,-6.37822 0.70825,-9.95112l0.18252,-13.29536l0.36738,-16.19062c0.0397,-2.37612 0.18984,-4.72236 0.0999,-7.09937c-2.86846,-3.05479 -4.1915,-2.85439 -7.89067,-3.7623c1.23413,-0.17007 3.09756,-0.1541 4.40376,-0.20684c1.92407,-0.05142 4.74785,-0.1522 6.59985,0.02285c2.11099,0.19966 4.24907,5.60596 5.11084,7.34062c1.09966,2.21323 2.15054,4.54482 3.20449,6.7708l10.80337,22.65718c1.04648,2.21104 3.62754,8.06309 4.846,9.72671c1.36099,-2.41318 3.73242,-8.23887 4.9626,-11.02529l10.9585,-24.9271c1.16895,-2.58999 3.38525,-8.71582 5.31445,-10.4502z" fill="#7761fd"/><path d="M177.42188,122.9584l9.54199,-0.04863c1.22021,-0.00688 5.7334,-0.26616 6.38232,0.48926c0.1084,1.05864 -3.03809,5.35444 -3.84961,6.56807l-5.49609,8.30405l-18.5625,27.91685l-4.39453,6.58594c-0.46582,0.7002 -2.63818,3.66357 -2.37598,4.30664c2.04639,0.4292 6.57129,0.15088 8.84766,0.16699c5.1167,0.03955 10.40332,0.13623 15.50244,0.03516c5.0332,-0.09814 9.49658,-1.87354 11.46973,-6.80273c0.30908,-0.7749 0.81445,-2.73779 1.30225,-3.25049c0.38818,0.54639 0.10547,2.17383 0.0249,2.87402c-0.23291,2.21631 -0.48633,5.96777 -1.16016,8.09326c-0.28125,0.8833 -4.78125,0.55957 -5.96191,0.55078l-8.51074,-0.03516l-20.68652,-0.08203c-1.3374,-0.00879 -7.29932,0.27539 -8.21191,-0.271c-0.25195,-1.19971 2.52686,-4.80908 3.34424,-6.0249l5.9209,-8.80664l18.85107,-28.01309c1.2334,-1.82988 6.68555,-9.40972 7.0415,-10.99541l-0.18164,-0.24199c-1.88525,-0.70752 -9.15527,0.42729 -10.00342,-0.49541c0.24756,-0.61743 0.56836,-0.70503 1.16602,-0.82354z" fill="#7761fd"/><path d="M191.04932,217.3418c4.85889,-0.74414 9.40137,2.59424 10.14404,7.45459c0.74121,4.86035 -2.59863,9.40137 -7.46045,10.13965c-4.85742,0.73975 -9.39404,-2.59863 -10.13525,-7.45459c-0.74121,-4.85742 2.59424,-9.39551 7.45166,-10.13965zM193.76074,231.28418c1.41797,-0.54785 2.28955,-1.08691 2.93848,-2.53564c1.13232,-2.52246 0.47607,-6.42187 -2.33496,-7.53955c-1.08252,-0.4292 -2.0625,-0.33838 -3.16992,-0.271c-3.32959,1.16895 -4.27002,4.18799 -3.20654,7.52051c0.84814,2.66016 3.25342,3.13477 5.77295,2.82568z" fill="#ffffff"/><path d="M52.05381,217.59521c0.83452,-0.07471 3.64189,-0.20654 4.22036,0.14795c0.82603,0.50391 2.23579,4.4751 2.63965,5.46973c0.87832,2.14746 1.79341,4.28027 2.74453,6.39697c1.58555,-2.75391 3.46538,-8.93408 5.16343,-11.82568c0.24463,-0.41602 3.77358,-0.27246 4.68311,-0.25488c0.21929,5.04199 -0.12041,10.15723 0.05449,15.2124c0.02563,0.73975 -0.01274,1.48242 -0.07383,2.22217c-5.01035,0.08643 -4.05791,-0.50391 -3.98833,-5.1665c0.00688,-1.83691 0.02827,-3.66797 -0.04087,-5.50488l-0.03164,0.0498c-1.45928,2.20166 -2.8752,8.96484 -4.26006,10.25391c-0.46025,0.42773 -1.96963,0.46143 -2.53872,0.27539c-1.30576,-0.42627 -3.43564,-8.36426 -4.53442,-10.09863l-0.13154,0.08057c-0.21138,1.08545 -0.06958,2.7085 -0.07339,3.85986c-0.00703,2.10498 0.05039,4.09424 -0.15205,6.19922c-0.8562,0.01904 -2.95957,0.17139 -3.58784,-0.21094c-0.4103,-1.43848 -0.42378,-15.44238 -0.09287,-17.10645z" fill="#ffffff"/><path d="M176.10938,101.31138c0.96387,0.17988 1.47363,0.63457 2.19727,1.24922c-0.71338,1.68105 -3.26807,5.55908 -4.31982,7.23794l-7.13965,11.55278l-17.90918,28.77466c-2.83711,4.54834 -5.67129,9.45117 -8.5979,13.8999c-1.11021,-0.271 -1.44888,-0.5376 -2.29116,-1.31104c2.16489,-3.97412 5.89951,-9.62988 8.34873,-13.60254l16.98955,-27.43506l8.75537,-14.11641c0.93457,-1.5019 2.99121,-5.07188 3.9668,-6.24946z" fill="#029686"/><path d="M108.6312,217.5835c4.5624,-0.15088 3.51328,-0.47168 6.07954,3.22559c1.63682,2.3584 3.39858,5.38477 5.13794,7.61572l0.0936,0.11865c0.20215,-2.3042 -0.24756,-9.09521 0.27275,-10.77832c0.7062,-0.44678 2.83184,-0.21533 3.76084,-0.16992c0.12891,3.10693 0.09946,6.32373 0.10122,9.43652c0.00146,2.57813 0.06401,5.35693 -0.19409,7.91016c-4.04634,0.01465 -3.352,0.28564 -5.67041,-2.89307c-1.58789,-2.17822 -3.60703,-5.87402 -5.31606,-7.80615l-0.22778,0.06299c-0.22002,0.80566 -0.07192,2.1709 -0.06753,3.08643c0.01318,2.68945 0.23511,4.79883 -0.19204,7.4707c-1.26753,0.12451 -2.54473,0.11133 -3.80947,-0.04102c-0.28257,-4.48096 -0.09888,-8.92529 -0.0854,-13.41064c0.00366,-1.25977 -0.03911,-2.58105 0.11689,-3.82764z" fill="#ffffff"/><path d="M223.14551,217.62598c1.3623,-0.12744 2.35986,-0.104 3.73389,-0.07324c0.19336,1.40332 0.14063,5.19434 0.12598,6.71191c-0.03223,3.41895 0.10254,7.31836 -0.13037,10.69775c-0.75293,-0.00439 -3.36914,0.13184 -3.82324,-0.39551c-2.80811,-3.25635 -4.74609,-7.20557 -7.45605,-10.59521c-0.22412,2.78027 0.03223,6.18164 -0.12012,9.01758c-0.02051,0.39551 -0.12158,1.51025 -0.43652,1.70947c-0.73096,0.46289 -2.56934,0.19922 -3.4292,0.08936c-0.16553,-1.78125 -0.32373,-15.90674 0.06445,-17.19873c4.41943,-0.2124 3.62695,-0.25195 6.07324,3.26807c1.60986,2.31738 3.29443,5.34521 5.05518,7.46045l0.15088,0.17871c0.14209,-3.57861 -0.1626,-7.27734 0.19189,-10.87061z" fill="#ffffff"/><path d="M88.05615,217.57471c1.19868,-0.10693 3.0731,-0.24316 4.16543,0.22119c0.70459,0.69287 5.85894,15.13184 6.32915,17.12842c-3.80024,0.09082 -3.82104,0.56104 -5.08154,-3.18604l-1.2939,-0.0498c-1.86445,0.06738 -3.73125,0.03223 -5.59189,-0.10254c-1.23926,3.61963 -1.14976,3.60059 -5.07744,3.2373c0.02534,-0.12012 0.05303,-0.2417 0.0832,-0.36182c0.52368,-2.12402 2.03188,-5.66455 2.78115,-7.94971c0.8625,-2.63086 2.02866,-5.68359 3.04541,-8.26611c0.12876,-0.32666 0.3501,-0.49658 0.64043,-0.6709zM87.76699,228.62402c1.08735,0.12451 1.56504,0.18311 2.65063,0.13184l1.7937,-0.04102c-0.17681,-1.44727 -1.40244,-5.58252 -2.34302,-6.67529c-0.55166,1.54395 -1.86914,5.05518 -2.10132,6.58447z" fill="#ffffff"/><path d="M151.45752,225.89063c0.39111,1.82813 -0.07031,3.98877 -1.15137,5.50195c-1.35937,1.87207 -3.42041,3.11133 -5.71172,3.43066c-8.54912,1.28027 -13.28569,-8.0376 -8.51528,-14.16504c1.42822,-1.79883 3.52529,-2.93994 5.81104,-3.16406c3.84712,-0.38818 8.11128,1.13965 9.0019,5.31445c-1.39746,0.03076 -2.65723,0.08496 -4.05469,-0.05713c-1.20498,-1.08984 -2.34814,-1.95557 -4.14771,-1.75049c-2.35649,0.2666 -3.66855,1.47656 -4.21714,3.95654c-1.23208,5.5708 4.72661,8.89307 8.62852,4.89697c0.21533,-0.22119 0.60352,-1.1748 0.66943,-1.5498c-0.44971,-0.18018 -0.81299,-0.19922 -1.29067,-0.26221c-0.96152,-0.24023 -4.61528,0.33398 -3.32476,-2.06689c0.41484,-0.30908 1.34604,-0.17432 2.04521,-0.36035c2.28604,-0.05273 4.02627,-0.22705 6.25723,0.27539z" fill="#ffffff"/><path d="M238.1499,217.43262c1.34766,-0.03662 9.49658,-0.1582 10.07373,0.31641c0.44678,0.90527 0.18164,1.69629 0.01758,2.7085c-2.07861,0.06592 -4.15576,0.11133 -6.23437,0.13916c-0.04248,1.30518 -0.01172,2.64551 0.00146,3.95361c1.90283,0.00146 3.89941,-0.03662 5.79053,0.09375c0.00146,0.88184 -0.06738,1.90576 -0.10547,2.79785c-1.77246,0.20361 -3.89062,0.11865 -5.69531,0.08496l-0.00439,1.77246l0.04248,2.43896c2.14893,-0.01611 4.29785,0.00293 6.44531,0.06006c0.03662,1.29199 0.01465,1.83398 -0.1377,3.11719c-3.41455,0.09814 -6.83203,0.104 -10.24658,0.01758c-0.31201,-1.91162 -0.45557,-15.96973 0.05273,-17.50049z" fill="#ffffff"/><path d="M161.52393,217.56299c3.28564,-0.09375 8.17236,-0.09082 11.56787,0.12305c1.14551,0.07178 0.31055,2.90186 -0.14795,3.63867c-2.17969,3.5083 -4.84424,6.78809 -6.99902,10.33154c2.42578,0.10107 5.22363,-0.24316 7.64648,0.0835c0.00146,0.70605 0.09961,2.72754 -0.34131,3.20654c-3.9375,0.08936 -7.76807,0.16846 -11.70557,-0.06006c-0.0791,-0.73535 -0.25635,-2.55029 0.06299,-3.09375c1.9292,-3.28125 5.19434,-7.86035 7.39307,-10.90576c-2.5957,-0.22559 -5.0874,0.14209 -7.47217,-0.10693c-0.15088,-0.94775 -0.12158,-2.26758 -0.00439,-3.2168z" fill="#ffffff"/><path d="M142.42485,225.75586l0.08306,-0.3457c0.8187,-0.31934 7.75869,-0.27393 8.78555,-0.03662c0.20801,0.29883 0.13037,0.13623 0.16406,0.51709c-2.23096,-0.50244 -3.97119,-0.32812 -6.25723,-0.27539c-0.78354,0.00146 -2.15874,0.18164 -2.77544,0.14063z" fill-opacity="0.97647" fill="#ffffff"/><path d="M142.42485,225.75586c0.6167,0.04102 1.99189,-0.13916 2.77544,-0.14062c-0.69917,0.18604 -1.63037,0.05127 -2.04521,0.36035c-1.29053,2.40088 2.36323,1.82666 3.32476,2.06689c-1.26431,0.0791 -2.69429,0.04395 -3.9728,0.04248c-0.10122,-0.94629 -0.10811,-1.37988 -0.08218,-2.3291z" fill-opacity="0.98824" fill="#ffffff"/></g></svg></svg>