<svg id="svg" version="1.1" viewBox="0 0 300 300" width="300" height="300" xmlns="http://www.w3.org/2000/svg"><svg xmlns="http://www.w3.org/2000/svg"><defs><clipPath id="clip-1"><rect x="0" y="0" transform="scale(0.14648,0.14648)" width="2048" height="2048" fill="none"/></clipPath><linearGradient x1="158.98535" y1="198.60352" x2="153.97559" y2="257.99854" gradientUnits="userSpaceOnUse" id="color-1"><stop offset="0" stop-color="#fffffe" stop-opacity="0.57647"/><stop offset="1" stop-color="#fffffe" stop-opacity="0.67843"/></linearGradient><linearGradient x1="88.36362" y1="225.33984" x2="91.61631" y2="227.91943" gradientUnits="userSpaceOnUse" id="color-2"><stop offset="0" stop-color="#ffffff" stop-opacity="0.78039"/><stop offset="1" stop-color="#ffffff" stop-opacity="0.83529"/></linearGradient><linearGradient x1="155.57227" y1="261.76904" x2="155.56641" y2="252.0542" gradientUnits="userSpaceOnUse" id="color-3"><stop offset="0" stop-color="#fffffe" stop-opacity="0.31372"/><stop offset="1" stop-color="#fffffe" stop-opacity="0.56078"/></linearGradient><linearGradient x1="61.37329" y1="219.15234" x2="64.34751" y2="224.43604" gradientUnits="userSpaceOnUse" id="color-4"><stop offset="0" stop-color="#fffffe" stop-opacity="0.30588"/><stop offset="1" stop-color="#ffffff" stop-opacity="0.38824"/></linearGradient></defs><g clip-path="url(#clip-1)" fill="none" fill-rule="nonzero" stroke="none" stroke-width="1" stroke-linecap="butt" stroke-linejoin="miter" stroke-miterlimit="10" stroke-dasharray="" stroke-dashoffset="0" font-family="none" font-weight="none" font-size="none" text-anchor="none" style="mix-blend-mode: normal"><path d="M179.146,196.75488c0.97559,-1.01074 -0.37061,-14.40967 0.49658,-16.27295c2.10645,-0.37207 6.82617,0.52002 9.17139,0.45264c1.66406,-0.0498 4.06494,0.09961 5.7583,0.20801c4.36523,0.27832 8.729,0.85254 13.09717,1.15869c2.20605,0.16699 4.44434,0.41602 6.66064,0.52148c0.17139,-0.06445 0.85254,0.41016 0.80859,0.40869c1.81494,0.06592 5.73047,0.59033 7.38574,0.7749c12.11719,1.48242 24.14795,3.5918 36.04688,6.31934c0.76318,0.17871 1.73438,0.04102 2.42871,0.29004c3.38525,1.1748 7.00049,1.78418 10.43115,2.75684c7.57764,2.146 15.07178,4.23486 22.31396,7.38281c1.91895,0.83496 3.90527,1.28906 5.67773,2.37158c0.33545,0.88037 0.14355,28.55713 0.14355,31.3623l0.00146,25.03418c0,4.57178 0.04102,9.18604 -0.05713,13.75488c0.09814,0.19189 -0.73096,1.09717 -0.81445,1.11475c-1.42383,0.2915 -2.7627,0.69434 -4.0752,1.3623c-0.72656,0.36914 -1.09863,0.68701 -1.87646,0.64453c-0.86133,-0.04687 -1.88525,0.8335 -2.72607,1.26123c-1.03271,0.52588 -3.271,0.48047 -3.854,1.39893c-2.41113,-0.34424 -4.78711,1.75342 -7.19092,2.05078c-1.8457,0.22998 -3.95654,0.83496 -5.7334,1.42822c-0.70752,0.23584 -1.44287,0.60352 -2.16211,0.77344c-0.19629,0.04688 -0.36621,0.00586 -0.56104,-0.03223c-0.21533,-0.04102 -0.4541,-0.11426 -0.67383,-0.08936c-0.646,0.07471 -1.58936,0.57422 -2.24414,0.7749c-1.35937,0.41455 -2.75391,0.71338 -4.11914,1.10596c-0.9624,0.27832 -1.94531,0.36328 -2.93848,0.47314c-0.9624,0.10547 -1.73437,0.84375 -2.34229,0.91992c-0.27393,0.03516 -0.91699,-0.1875 -1.25244,-0.21533c-0.97412,0.49805 -2.61621,1.25537 -3.66211,0.92578c-1.44727,-0.45703 -1.84277,0.57568 -2.64258,0.68848c-1.88232,0.26514 -3.69141,0.52588 -5.5708,0.91406c-0.03662,-0.01465 -0.58447,-0.24609 -0.61816,-0.23291c-1.23047,0.49219 -2.50928,0.79688 -3.81592,0.99463c-0.4043,0.11865 -1.45898,-0.30469 -1.78125,-0.14209c-1.875,1.20703 -3.92871,0.55957 -5.66895,0.86426c-2.55908,0.44678 -5.30566,1.20264 -7.93359,1.46631c-4.70947,0.47314 -9.27832,1.31836 -14.01416,1.48096c-1.8457,0.06299 -3.89062,0.86279 -5.71729,0.37354c-0.86279,-0.21973 -2.51074,0.56396 -3.44092,0.61084c-1.62012,0.14355 -3.19922,0.08789 -4.8208,0.08789c0,0 -0.57422,0.36035 -0.57568,0.36035c-1.25537,0.13477 -3.85693,-0.36768 -4.83105,0.27246c-0.6167,0.40576 -1.03711,-0.52295 -1.8252,-0.44678l-0.28711,0.45703c-0.40283,0.17139 -0.64746,-0.02197 -1.19678,-0.18604l-0.57861,0.38818c-2.80371,0.12451 -5.63379,0.37207 -8.42432,0.43799c-2.86816,0.06885 -5.5708,-0.01758 -8.42725,0.43359c-0.81885,-0.07324 -0.87598,-0.35303 -1.75488,-0.2959c-3.19043,0.20654 -6.35596,0.2959 -9.55078,0.11865c-0.50391,-0.02783 -1.9043,-0.11133 -2.3335,0.08789c-1.19971,0.55371 -2.47266,-0.09521 -3.73535,-0.05127c-1.61719,0.02197 -3.41895,0.17725 -5.04199,0.08203c-4.3355,-0.31201 -8.65664,-0.10254 -12.98628,-0.21387c-2.55322,-0.06445 -5.11904,-0.55811 -7.73394,-0.29883c-0.09873,0.00879 -0.3709,-0.41162 -0.81021,-0.4043c-1.69395,0.02783 -3.3624,0.18604 -5.05957,0.15381c-0.09082,-0.08936 -0.47974,-0.45117 -0.58916,-0.41455c-2.33525,0.75146 -4.08926,-0.19189 -6.43608,-0.2915c-2.4917,-0.10547 -5.07671,-0.19189 -7.59727,-0.24609c-1.23516,-0.88037 -0.94365,-0.08643 -1.92466,-0.14941c-1.85684,-0.12158 -2.12915,-1.03271 -4.05103,-0.33398c-0.18647,-0.16699 -0.12275,-0.09521 -0.27261,-0.28711c-0.36431,-0.46729 -5.61753,-0.12891 -5.98579,-0.38379c-0.26982,-0.18604 -0.02607,-0.26367 -0.46377,-0.40137c-2.02661,0.63135 -1.32686,0.26367 -3.01377,-0.43213c-0.23115,-0.09521 -2.05093,0.18457 -2.43662,0.10547c-0.95112,-0.19482 -1.69116,-0.80127 -2.68975,-0.62402c-2.08945,0.37061 -3.43242,-0.39551 -5.11948,-0.60937c-3.49761,-0.44238 -6.88843,-0.9668 -10.41533,-1.30225l-0.2792,-0.3457c-2.08667,0.03076 -2.55337,-0.23877 -4.47437,-0.50098c-2.63203,-0.40723 -5.40835,-0.82178 -8.00566,-1.38135c-2.20342,-0.47461 -4.22095,-1.10156 -6.52222,-1.20264c-0.44004,-0.01904 -1.49868,-0.58301 -2.02939,-0.65039c-0.73696,-0.09082 -1.44419,-0.11865 -2.17368,-0.27686c-3.64688,-0.82617 -7.25156,-1.82812 -10.80103,-3.00293c-0.36255,0.11719 -0.38979,0.1626 -0.75762,0.11279c-0.26763,-0.33105 -0.35361,-0.51709 -0.76304,-0.60937c-1.89595,0.51563 -1.69893,-0.67822 -2.47251,-0.73828c-2.81953,-0.21533 -5.66147,-1.12646 -8.29907,-2.05518c-0.67983,-0.23877 0.00132,-0.49365 -1.66948,-0.64746c-1.95366,-0.18018 -4.28394,-1.61133 -6.15718,-2.2998c-0.89414,-0.32959 -1.60122,-0.1084 -2.04302,-0.31494l-0.02254,-0.59033c-0.74295,-0.35742 -1.79738,-0.15674 -2.46686,-0.48779c-1.28013,-0.63574 -1.3027,-1.65381 -2.83292,-1.39453c-1.75768,-0.75146 -7.83678,-3.22119 -8.78822,-4.36377c-0.24404,-1.46191 -0.12045,-7.59814 -0.12033,-9.49951l0.00253,-20.78613l0.00222,-20.91797c-0.00073,-1.80908 -0.12457,-8.4375 0.08089,-9.93164c1.92122,-2.02881 8.14278,-3.81885 10.8037,-5.20166c2.0234,-1.05176 3.63918,-1.59814 5.70959,-2.35693c3.17549,-1.16309 6.22749,-2.55029 9.52236,-3.41309c0.90835,-0.2373 1.86914,-0.76611 2.79507,-1.00488c0.5918,-0.17578 1.86489,-0.34277 2.24619,-0.48633c2.48145,-0.9375 5.01079,-1.49121 7.53618,-2.29687c0.89561,-0.27246 1.98809,-0.31641 2.86392,-0.5874c4.25215,-1.38135 8.625,-2.18701 12.98438,-3.11719c2.42139,-0.51562 4.75444,-1.14551 7.25903,-1.41943c0.9397,-0.08789 2.10732,-0.68848 3.00601,-0.74414c3.023,-0.18311 5.81528,-0.95361 8.80693,-1.37695c3.96167,-0.56104 7.9021,-1.26123 11.89248,-1.60986c1.00518,-0.08789 2.13325,-0.55078 3.18779,-0.68262c17.00405,-1.96582 34.08779,-3.16553 51.19966,-3.59619c1.49971,-0.04541 16.08003,-0.38086 16.6147,-0.1582c0.15967,1.29346 0.0835,4.10449 0.0835,5.49316v10.30811c0.30029,0.00586 1.27148,-0.02344 1.46045,0.09229c-0.57861,0.06738 -0.94775,0.12305 -1.51611,0.24902c-1.67432,0.18457 -3.12744,-0.06006 -4.604,-0.01172c-2.32471,0.07324 -6.08628,-0.07031 -8.29937,0.24463l0.40869,0.21387c-4.96055,-0.0791 -9.68877,0.30029 -14.66338,0.58887c-4.51187,0.26221 -9.225,0.87744 -13.73613,1.32861c-0.90718,0.22119 -1.81538,0.37207 -2.72974,0.52441c-2.85439,0.479 -5.93437,0.60938 -8.74922,1.17627c-3.69375,0.74414 -7.3894,1.11475 -11.01108,2.13574c-2.20781,0.62109 -4.55581,1.04443 -6.82251,1.37695l-0.27949,0.51855l-0.18896,0.00586c-1.87822,0.0791 -4.44097,0.85254 -6.07983,1.75928l-0.1043,0.19482c1.19443,-0.15234 2.45728,-0.91406 3.64307,-0.9375c0.46216,0.31494 0.27979,0.40283 0.48208,0.98291l0.13389,-0.04687c0.0498,-0.87744 0.13696,-1.06201 1.09028,-1.36523c0.92739,0.17285 0.98818,0.91553 1.10347,1.74609l0.15542,0.04834l0.0085,-0.24609c0.02739,-0.6665 0.01992,-1.14404 0.32036,-1.73145c1.2063,-0.83496 8.53271,-1.54395 10.57104,-2.2793c1.26123,-0.45557 5.53667,0.40576 7.06978,-0.53613c0.30176,-0.12598 0.87788,-0.01465 1.32056,-0.04541c-0.18765,-0.56396 -1.4168,-0.59619 -1.95498,-0.63721c1.23018,-0.63135 3.30015,0.27832 4.03154,-0.06885c1.88013,-0.89355 3.82925,0.00439 5.83931,-0.22705c0.59561,-0.06885 0.93779,-0.46436 1.55625,-0.46436l0.45527,0.41309c0.78691,-0.46729 -0.121,-0.47754 0.76201,-0.54053l0.46758,0.41748c0.72568,-0.16406 0.29062,-0.375 1.00166,-0.49512l-0.1415,-0.2666c-0.84155,-0.14502 -2.04771,0.42188 -2.85571,-0.20947l0.34175,-0.19775c0.40752,0.16406 0.25723,0.08203 0.57891,0.4248c0.35259,-0.18604 0.40708,-0.30908 0.65859,-0.61963c1.23896,-0.18604 2.76431,0.15234 4.02319,-0.30176c0.03926,-0.19043 0.03589,-0.09375 0.00894,-0.29004c0.41089,0.1582 0.25854,0.08496 0.58945,0.43359c1.06216,-0.05127 1.81465,-0.31494 2.85879,-0.3252c0.55532,-0.00439 1.87866,0.2168 2.47617,0.27979c0.04482,0.00586 0.48369,-0.4585 0.57715,-0.55518c0.37017,0.17578 0.44268,0.28271 0.73872,0.56543c0.4563,-0.02783 0.58975,0.01172 0.96929,-0.23437c-0.08115,-0.30469 -0.00894,-0.16992 -0.21489,-0.4043c0.76787,0.03809 0.77915,0.52002 1.59712,0.44092l0.40063,-0.26807l-0.31846,-0.41162l0.08936,-0.04395c0.63384,0.51563 2.32954,0.94482 3.02622,0.51709l-0.16465,-0.12744l0.09932,0.23877l-0.25518,-0.24023l-0.24507,-0.02783l-0.09009,-0.17725l0.38862,-0.41162c0.46187,0.05273 0.46567,0.01465 0.81475,0.30322l-0.71528,0.23145c0.62373,0.08643 0.36694,-0.03809 0.82075,0.33545c0.92432,-0.09814 1.20498,-1.39746 2.53799,-0.5918l-0.02212,0.12598c-0.43403,-0.17578 -0.26675,-0.1582 -0.71147,-0.15527l-0.0293,0.24902c0.96182,0.76465 1.30884,0.00439 2.21191,-0.37354c0.61743,-0.25781 1.62905,0.26221 2.2251,0.50537l0.1834,-0.08203c-0.34336,-0.2666 -0.30601,-0.13477 -0.40869,-0.44824c0.51416,0.07178 1.28716,0.25781 1.71167,0.05713c-0.1623,-0.08203 -0.32373,-0.16553 -0.48413,-0.25049l0.08394,-0.12451c0.30879,-0.02637 1.25581,0.16846 1.51802,0.29883c0.85752,0.42334 1.92451,0.07471 2.9376,-0.13916l-0.17329,-0.19922c0.18867,-0.2168 1.24629,0.00293 1.58906,0.04395c0.67676,0.03809 1.97168,0.50684 2.60156,0.46729c2.42578,-0.15381 4.83691,-0.21094 7.26709,-0.22266c0.72217,-0.00293 1.69043,0.31934 2.29688,0.26953c1.26416,-0.10254 2.57959,-0.57275 3.87598,-0.5625c1.41357,-0.04687 2.17969,0.97559 3.28857,0.41455c0.35596,-0.18018 0.65186,-0.22705 1.04443,-0.22559l-0.54346,0.23438l-0.04834,0.15527l0.63428,0.06006c0.5083,0.50537 -0.04102,0.55371 0.28418,1.00049c0.19482,-0.21826 0.13477,-0.90234 0.14502,-1.27881c0.27393,0.0249 1.82666,0.46143 2.21631,0.55518l-0.03223,0.24902l0.13037,0.12451c0.2915,-0.25928 0.19482,-0.15234 0.38086,-0.5127l-0.09082,-0.25049l1.13672,-0.00732l0.17139,-0.18604l0.0542,0.06152l-0.27539,-0.22852c0.55371,0.0249 0.93457,0.48779 1.36377,0.88916c0.31934,-0.20215 0.2168,-0.1084 0.4292,-0.42334l-0.39111,-0.27686c0.65479,-0.04541 1.58789,0.01318 2.10059,0.40283c0.87158,0.66357 1.17334,-0.36475 2.20898,-0.25928l-0.65479,0.45996c0.36475,0.08936 1.16016,-0.17725 1.58643,-0.28271l-0.08203,0.03662c0.41455,-0.09668 0.78516,-0.2168 1.20703,-0.18896l-0.2373,0.31934c1.2334,1.16602 0.43359,-0.28857 2.16504,-0.00732c2.10352,0.34131 4.05322,0.46143 6.15967,0.24902c0.7998,-0.08057 2.28809,0.62109 3.33398,0.53174c1.04297,-0.08936 2.90332,-0.12012 3.78369,0.38965l-0.28857,0.31055c-0.4834,0.11426 -0.3208,0.08496 -0.8877,-0.20215l-0.16406,0.10547c0.21973,0.3457 0.21826,0.30322 0.31641,0.69141c0.75439,0.03516 3.68262,-0.30029 3.91846,-0.15674c0.8584,0.86865 2.62939,0.01318 3.33252,0.2168c1.91748,0.55518 3.38818,0.13916 5.22803,0.51855c-0.46289,0.15674 -0.57129,0.12012 -0.86426,0.44971c0.86133,0.09375 0.56543,-0.38965 1.40479,-0.38672l-0.05566,0.43359c0.59033,0.28418 5.86523,0.69727 6.96387,0.80713c1.68604,0.16846 2.146,0.69287 3.68408,1.04883c1.03418,0.16992 2.10352,0.08496 3.12891,0.37061c3.03955,0.84961 6.14795,1.34033 9.17285,2.23828c0.30615,0.09082 0.6709,-0.04102 0.95361,-0.1377c-0.31934,-0.18604 -0.63281,-0.28711 -1.00195,-0.33691c-1.40771,-0.19336 -3.02051,-1.05176 -4.39307,-1.32422c-3.77637,-0.75293 -7.5,-1.85742 -11.27051,-2.6499c-1.18359,-0.24756 -2.42139,-0.31055 -3.60352,-0.50684c-0.60205,-0.09961 -1.21436,-0.40723 -1.96143,-0.52441c-3.42627,-0.53906 -6.8042,-1.00488 -10.24512,-1.45605c-1.64502,-0.21533 -3.03516,-0.60059 -4.75928,-0.82324c-2.89453,-0.37354 -5.85937,-0.5625 -8.74365,-1.01221c-1.75488,-0.27393 -3.80713,-0.03809 -5.52539,-0.41895c-0.03516,-0.02783 -0.06885,-0.05713 -0.104,-0.08643zM67.32554,233.53125c0.10444,-2.92383 0.06079,-6.20215 0.06445,-9.15088c-0.50522,1.09131 -1.20952,3.1582 -1.68604,4.35498c-0.63354,1.62012 -1.49854,5.40381 -3.07939,6.20068c-0.70239,0.35303 -2.16724,0.24756 -2.77046,-0.41455c-0.50361,-1.2583 -3.35039,-8.43311 -3.44429,-9.15234l-0.32988,-0.53906c-0.1938,0.22705 -0.13052,0.37354 -0.15498,0.75c0.09844,2.34521 -0.16626,6.72656 0.04893,8.7041l-0.26353,0.55957l0.37163,0.375c-1.1811,0.89795 -1.10464,0.31494 -2.15259,0.63135c-5.30098,1.59814 -2.29028,-6.70898 -3.41133,-9.32227c-0.19131,-0.44531 -0.04468,-1.63623 -0.24946,-2.02148c-0.12056,1.52344 0.15718,2.06396 0.14839,3.35449c-0.01318,1.9248 0.02725,3.92285 -0.00923,5.84473c-0.05815,3.06445 4.60063,3.50977 6.14883,2.09473c0.08115,-0.07471 0.16069,-0.15088 0.23877,-0.22998c-1.88174,6.43213 18.85562,14.84033 24.00762,16.34033c-1.46528,0.06445 -11.45259,-0.23584 -11.9127,-0.01904c4.72705,0.4585 9.28843,0.24023 14.02529,0.25342c0.64805,0.00293 0.60674,0.77783 1.20029,0.80859c0.01318,-0.10986 0.08467,-0.76611 0.10605,-0.82617c0.10049,0.18311 0.26338,0.61523 0.35112,0.82617c1.45898,0.68408 3.30425,0.94336 4.84058,1.44434c3.90132,1.27295 7.90254,2.24121 11.9688,2.78906c0.91333,0.12451 2.32148,0.54053 3.36182,0.71484c8.93643,1.48096 17.93818,2.53418 26.9748,3.1582c2.74482,0.18896 5.47485,0.42334 8.22349,0.52441c1.59639,0.05859 3.48135,-0.12598 5.02896,0.14502c2.48701,0.43799 5.30098,0.09814 7.83809,0.15527c5.15186,0.11426 10.26563,-0.08057 15.41309,-0.30176c16.50732,-0.71045 36.15381,-2.38623 51.94043,-7.0957c2.33203,-0.6958 4.50586,-1.18945 6.75732,-2.18262c0.55664,-0.24463 1.34033,-0.25781 1.94678,-0.38232c0.72803,-0.09521 3.95068,-1.31104 4.66992,-1.58057c5.6748,-2.09473 10.89111,-4.64502 15.60791,-8.46973c1.68018,-1.3623 2.10791,-1.20703 3.05273,-3.49072c0.104,-0.25195 0.18604,0.14209 0.54492,0.14648c0.52441,-1.11182 1.15576,-2.17822 1.76367,-3.24756l-0.0249,0.10107c2.09912,-4.32715 0.88184,-7.92773 -1.83838,-11.61914l-0.47021,0.14355c-0.27979,-0.32227 -0.16113,-0.59473 -0.15674,-1.16162c-0.42627,-0.69727 -0.86279,-0.89795 -1.59814,-1.24951c-0.67969,-0.3252 -0.8291,-0.14209 -1.4751,0.11865c1.05176,-1.16016 1.23193,-3.98291 -0.19189,-5.05811c-0.7749,-0.55225 -2.33203,-1.00781 -3.19336,-0.51123c-1.604,0.04102 -3.13477,0.23438 -4.70508,0.11865l0.64746,-0.3501l0.01318,-0.23437c-5.0625,-4.11621 -21.36621,-8.81396 -28.00781,-10.22754c-35.77295,-7.61426 -73.57075,-7.66113 -109.56841,-1.56006c-10.42925,1.76807 -22.57427,5.45068 -32.37612,9.65771c-0.70708,0.30322 -3.47813,1.86182 -3.79321,2.30566c0.19087,0.32227 0.36914,0.375 0.69946,0.56689c-2.27725,0.06445 -2.6231,0.31787 -3.63911,2.35107l-0.03618,-0.49072c-1.34341,-1.14697 -3.96313,1.79004 -4.79077,2.75684c-0.29106,0.34131 -0.0999,0.35156 -0.49072,0.14502c-0.23613,-0.64014 -0.20127,-0.89062 -0.53804,-1.54395c-0.11851,-0.74854 -0.84756,-2.9165 -1.40625,-3.30322c-0.01787,0.16846 1.19297,5.44922 1.34209,5.84619l-0.10474,0.47314c0.42202,1.15137 1.03813,2.81104 1.60093,3.89941c0.47754,1.11475 0.83438,1.97607 1.21465,3.12158c1.23853,-2.58105 2.23784,-5.34521 3.37002,-7.97461c0.49219,-1.14258 1.10098,-2.91357 1.74097,-3.90674c1.15415,-0.52588 3.15674,-0.30908 4.4896,-0.26807c0.63296,0.59326 0.41895,2.96631 0.41792,3.88916l0.00527,8.45801c-0.00044,1.52344 0.06021,3.71777 -0.13315,5.1665c-1.10449,0.12744 -2.42725,0.15088 -3.39521,0.28271c-0.77798,-0.50244 -0.67646,-0.80566 -0.78882,-1.69189zM237.75732,222.41016c0.09961,-1.17627 0.06592,-3.38086 0.08057,-4.63477c0.29004,-0.31201 0.44971,-0.45703 0.99756,-0.42334c1.99805,0.12598 8.34521,-0.44531 9.71777,0.48779c0.19043,0.44531 0.16113,1.62451 -0.07178,2.04199c-1.15576,2.06689 -4.72119,-0.11426 -6.33398,1.15723c-0.1333,0.10547 -0.07031,0.74561 -0.06006,0.91113c-0.06152,0.84814 -0.01318,1.65234 0.02051,2.49902c1.64355,-0.02197 4.22461,-0.12598 5.78027,0.1582c0.0293,1.40771 0.3501,3.30322 -1.81348,3.14502c-1.37402,-0.09961 -2.61768,-0.14209 -3.99463,-0.11279l0.05273,4.06494c1.84131,-0.08496 4.64355,-0.19336 6.43213,0.06738c0.03516,1.01367 0.2373,2.32471 -0.34277,3.11279c-1.11621,0.3252 -8.60449,0.20654 -10.19238,0.21094c-0.479,-1.57324 -0.25635,-10.40479 -0.27246,-12.68555z" fill-opacity="0.02353" fill="#fefefe"/><path d="M68.46709,216.3208c-0.33032,-0.19189 -0.50859,-0.24463 -0.69946,-0.56689c0.31509,-0.44385 3.08613,-2.00244 3.79321,-2.30566c9.80186,-4.20703 21.94687,-7.88965 32.37612,-9.65771c35.99766,-6.10107 73.79546,-6.0542 109.56841,1.56006c6.6416,1.41357 22.94531,6.11133 28.00781,10.22754l-0.01318,0.23438l-0.64746,0.3501c-1.96729,0.03369 -4.16602,-0.01465 -3.90674,2.46826c0.04541,0.43359 0.12158,1.15869 0.32227,1.52051c0.0293,-0.54199 -0.0542,-1.5 0.12744,-1.83252c0.31348,0.62402 -0.02783,2.66455 0.36182,4.09131c0.01611,2.28076 -0.20654,11.1123 0.27246,12.68555c0.87305,1.11621 8.62207,1.7915 10.24512,1.13965c1.1748,-0.47314 1.3916,-3.50537 1.0166,-4.33594l-0.34131,0.28125c-0.45557,-3.16113 -4.33447,-0.74121 -6.2915,-1.75049l-0.11133,0.33984l-0.17285,0.03809c-0.01611,-0.65332 -0.0542,-1.23633 0.02783,-1.88672l0.37354,0.29736c1.3916,-0.71777 3.60498,0.41309 4.96582,-0.55371c0.84375,-0.59912 1.46338,-2.83594 0.7998,-3.76758c-0.1333,0.55371 -0.12158,0.80713 -0.13916,1.38428c-0.10547,-1.06348 -0.39844,-0.85547 0.00586,-1.65234c-1.13525,-2.22803 -3.83936,-0.74707 -5.50928,-1.59668l-0.07324,-0.29883c1.16309,-1.23779 4.95264,0.4292 6.11719,-1.12061c0.646,-0.26074 0.79541,-0.44385 1.4751,-0.11865c0.73535,0.35156 1.17188,0.55225 1.59814,1.24951c-0.00439,0.56689 -0.12305,0.83936 0.15674,1.16162l0.47021,-0.14355c2.72021,3.69141 3.9375,7.29199 1.83838,11.61914l0.0249,-0.10107c-0.60791,1.06934 -1.23926,2.13574 -1.76367,3.24756c-0.35889,-0.00439 -0.44092,-0.39844 -0.54492,-0.14648c-0.94482,2.28369 -1.37256,2.12842 -3.05273,3.49072c-4.7168,3.82471 -9.93311,6.375 -15.60791,8.46973c-0.71924,0.26953 -3.94189,1.48535 -4.66992,1.58057c-2.3291,-0.16553 -5.81836,-0.02637 -8.34229,-0.09961c-7.59521,-0.21826 -15.32959,-0.0498 -22.93652,-0.0835c-2.51221,-0.01172 -5.5166,0.40869 -8.05811,0.43359c-3.53174,0.03369 -7.06055,-0.05127 -10.59375,0.01025l0.43213,0.15674c-0.41748,0.42188 -9.54492,1.125 -10.70508,1.1499c-0.25928,-0.1582 -0.26074,-0.1582 -0.55664,-0.2915c-0.00439,0.3457 -0.00146,0.375 -0.08203,0.70898l-0.12158,-0.00439l-0.07031,-0.35742c-3.00439,0.15088 -6.00879,0.26807 -9.01465,0.35156c-3.60498,0.11133 -27.1522,-0.36182 -28.46279,-1.59082l0.1563,-0.11426c-3.01187,-0.22559 -6.34585,0.12891 -9.39609,-0.02783c-8.82803,-0.45264 -18.03516,-0.69434 -26.86084,-0.38672c-2.04023,-0.14941 -4.81963,0.03223 -6.92578,0.07178c-1.74419,0.03223 -4.85332,-0.11426 -6.52617,0.06152c-5.152,-1.5 -25.88936,-9.9082 -24.00762,-16.34033l0.16758,-0.17285c-0.00103,-0.38672 0.22661,-3.40137 0.35259,-3.59473c0.86895,0.42188 0.73433,2.41406 2.06997,3.65479c0.31919,-0.27832 0.1771,-0.21387 0.57686,-0.30762c-0.18457,0.64014 -0.23789,0.71191 0.20771,1.13672c0.82705,0.271 1.34209,0.25488 2.20547,0.16113c2.25674,-0.24316 2.08198,-2.76855 2.92368,-3.87451l0.19658,0.21826c0.36357,-0.69434 -0.5959,-0.11133 0.3416,-1.78857c0.1106,0.25781 0.02549,0.16846 0.22295,0.29297c0.22178,-0.46582 0.03076,-0.84229 0.03735,-1.37988c0.31553,-0.24609 0.42114,-0.23145 0.81724,-0.28271l0.07954,-1.11475c0.3479,1.93359 0.11279,3.39551 0.33105,5.0127c0.11235,0.88623 0.01084,1.18945 0.78882,1.69189c0.70459,0.14063 2.03672,0.15967 2.76475,0.1875c2.29512,0.08643 1.28657,-4.39453 1.36172,-6.00879c0.17124,-3.67236 0.32065,-7.51758 0.29238,-11.19287c-0.00249,-0.32812 -0.16318,-0.40723 -0.37866,-0.55664c-0.13242,0.31787 -0.10884,5.49756 -0.1207,6.30029c-0.06372,-0.81006 -0.03384,-2.07275 -0.03823,-2.91797l-0.03135,-2.60156c-0.03325,-2.47266 -1.52109,-2.20898 -3.49717,-2.1123zM215.94141,229.54102c0.18896,-1.37402 0.37061,-2.0918 0.03223,-3.43506c0.35889,-0.06299 0.22266,-0.06885 0.57275,0.05566c1.37109,1.24512 4.56299,7.68457 5.77002,7.87793c-1.23193,-2.18994 -5.18701,-8.02588 -6.71631,-9.9624c-0.05273,1.13525 -0.07764,2.26904 -0.07617,3.4043c-0.12012,4.88379 1.79883,7.93945 -3.9668,7.4707c-0.29443,-5.21924 -0.05566,-12.09082 -0.08789,-17.4624l-0.04834,-0.1875c-0.44092,0.79834 -0.52881,4.29346 -0.8877,5.63379l-0.09668,0.02344c-0.61377,-0.99902 -3.95508,-2.72461 -5.07422,-3.28711c-9.41748,-4.72852 -20.30859,-6.38818 -30.69287,-7.54248c-0.86719,-0.09375 -3.19482,-0.36182 -3.92139,-0.36621l-0.01465,-0.3999c-0.24023,-0.11133 -2.24268,0.27539 -2.87109,0.23145c-18.70752,-1.29346 -37.77788,-0.11572 -55.92729,4.81348c-1.07036,0.29004 -2.69956,0.67236 -3.8105,0.69873c-0.03149,0.04102 -0.69961,1.06201 -0.61201,1.021c-2.28647,1.06641 -4.59111,2.16943 -6.70137,3.55957c-1.4625,0.96533 -2.84033,2.93262 -4.42456,3.64893c-0.25986,-0.23877 -0.29004,-0.30029 -0.49497,-0.5918c-0.34351,0.0293 -0.18237,-0.00732 -0.4853,0.09961c-0.55415,-1.16602 -0.95889,-2.92676 -1.54585,-4.28613l-0.25532,0.0249c-0.36313,-0.73242 -0.88242,-2.18701 -1.18535,-2.9707c-2.02441,-0.24902 -2.73999,-0.26953 -4.76909,-0.03809c-0.30425,0.6123 -0.59927,1.42236 -0.85635,2.07129l-0.14546,-0.5376c-0.44165,0.9375 -1.45474,1.41211 -1.29463,2.73633l0.28726,0.01611c0.03486,0.3999 0.08013,0.20947 -0.09199,0.59033c-1.27969,0.55225 -0.7229,1.18213 -1.20571,1.71387c-0.66636,0.73242 -0.63457,3.23584 -0.64116,3.24316l-0.20654,-0.29004c-0.62153,0.25781 -1.12617,2.97803 -1.25391,3.65625l-0.02095,-0.32666c-0.13052,0.6665 -0.32725,2.1167 -0.63735,2.61621l0.26558,0.12598c-0.15469,0.58008 -0.30469,1.16162 -0.45015,1.74463c2.17764,0.15088 3.93882,0.70898 4.71753,-1.71533c0.11309,-0.01465 0.2981,-0.0791 0.41514,-0.11426c0.27231,-0.45264 0.15425,-0.83643 0.09697,-1.38281c1.57017,0.00586 4.63066,0.08643 6.13008,-0.09375c0.01787,1.64209 1.29712,3.59619 2.95913,3.68848c0.78867,0.04395 2.46797,0.13477 3.23101,0.02637c0.1333,-0.21094 0.38364,-0.68408 0.4998,-0.60059c0.68364,0.49072 4.26064,2.57373 4.83809,2.86816c4.57251,2.33789 9.91011,4.01953 14.91108,5.06836c10.75342,2.23242 21.7002,3.40137 32.68271,3.49072c5.35254,0.03076 10.54395,-0.00439 15.88477,-0.37207c0.70605,-0.04834 1.43701,-0.04395 2.14453,-0.07031c0.44824,-0.01611 0.42773,0.46289 0.73389,0.50391c0.07471,-0.25049 0.08203,-0.56104 0.41455,-0.60498c11.60596,-1.54834 30.30762,-3.21094 39.47021,-11.3042c0.64893,0.75439 0.63428,1.01367 1.71533,1.01367c0.73975,0.01904 2.08301,0.16553 2.74805,0.02051c1.48682,-0.32227 1.05615,-4.69336 0.94922,-5.81543zM222.93164,223.3374l-0.02637,-0.24463c-0.09668,-0.88623 0.05127,-0.97559 -0.22705,-1.88232c-0.17139,1.59814 -0.49805,3.95068 -0.00439,5.39502l-0.12451,0.27979c-0.81006,0.09375 -1.03125,-1.10889 -1.62598,-1.77539l-0.2417,0.05127c0.20801,0.66357 1.73584,2.63379 2.23096,3.2915c0.05859,-1.70508 0.06445,-3.41016 0.01904,-5.11523z" fill="url(#color-1)"/><path d="M93.60513,220.5835l0.25532,-0.0249c0.58696,1.35938 0.9917,3.12012 1.54585,4.28613c0.30293,-0.10693 0.1418,-0.07031 0.4853,-0.09961c0.20493,0.2915 0.23511,0.35303 0.49497,0.5918c1.58423,-0.71631 2.96206,-2.68359 4.42456,-3.64893c2.11025,-1.39014 4.41489,-2.49316 6.70137,-3.55957c-0.0876,0.04102 0.58052,-0.97998 0.61201,-1.021c1.11094,-0.02637 2.74014,-0.40869 3.8105,-0.69873c18.14941,-4.9292 37.21978,-6.10693 55.92729,-4.81348c0.62842,0.04395 2.63086,-0.34277 2.87109,-0.23145l0.01465,0.3999c0.72656,0.00439 3.0542,0.27246 3.92139,0.36621c10.38428,1.1543 21.27539,2.81396 30.69287,7.54248c1.11914,0.5625 4.46045,2.28809 5.07422,3.28711l0.09668,-0.02344c0.35889,-1.34033 0.44678,-4.83545 0.8877,-5.63379l0.04834,0.1875c0.03223,5.37158 -0.20654,12.24316 0.08789,17.4624c5.76563,0.46875 3.84668,-2.58691 3.9668,-7.4707l0.01904,0.12891c0.09082,0.62988 -0.07031,1.61426 0.39844,1.93066c0.10693,1.12207 0.5376,5.49316 -0.94922,5.81543c-0.66504,0.14502 -2.0083,-0.00146 -2.74805,-0.02051c-1.08105,0 -1.06641,-0.25928 -1.71533,-1.01367c-9.1626,8.09326 -27.86426,9.75586 -39.47021,11.3042c-0.33252,0.04395 -0.33984,0.35449 -0.41455,0.60498c-0.30615,-0.04102 -0.28564,-0.52002 -0.73389,-0.50391c-0.70752,0.02637 -1.43848,0.02197 -2.14453,0.07031c-5.34082,0.36768 -10.53223,0.40283 -15.88477,0.37207c-10.98252,-0.08936 -21.9293,-1.2583 -32.68271,-3.49072c-5.00098,-1.04883 -10.33857,-2.73047 -14.91108,-5.06836c-0.57744,-0.29443 -4.15444,-2.37744 -4.83809,-2.86816c-0.11616,-0.0835 -0.3665,0.38965 -0.4998,0.60059c-0.76304,0.1084 -2.44233,0.01758 -3.23101,-0.02637c-1.66201,-0.09229 -2.94126,-2.04639 -2.95913,-3.68848c1.53574,0.41309 0.69858,1.9043 1.68545,2.80518c0.94512,0.86279 2.93262,0.6416 4.17861,0.60791c-0.33472,-1.75781 -1.30488,-4.05176 -1.92041,-5.7583c-1.04312,-2.89307 -2.14834,-5.77295 -3.09756,-8.69971z" fill-opacity="0.95686" fill="#fefefe"/><path d="M190.82373,217.37695c4.84863,-0.87305 9.48633,2.34961 10.35791,7.19971c0.87012,4.84863 -2.35547,9.48486 -7.2041,10.35352c-4.84717,0.86865 -9.479,-2.35547 -10.34912,-7.20117c-0.87158,-4.8457 2.34961,-9.479 7.19531,-10.35205z" fill="#2e2d2e"/><path d="M191.3877,220.93506c2.58691,-0.13477 4.64209,0.36328 5.50635,3.08496c0.9917,3.12158 -0.05127,6.35156 -3.30322,7.33301c-7.42529,0.99316 -7.87354,-9.10107 -2.20312,-10.41797z" fill="#fefefe"/><path d="M108.54653,217.52637c1.38604,-0.03955 2.56494,-0.04248 3.9501,0.00293c0.69448,0.84814 1.84277,2.70703 2.4854,3.68115c1.62407,2.47852 3.26411,4.94678 4.92012,7.40332c0.37324,-3.52881 -0.11484,-7.60107 0.25562,-11.07861c1.43789,-0.05713 2.38447,-0.05127 3.80962,0.06006c0.35566,3.73535 -0.06782,8.06836 0.08994,11.86084c0.0687,1.65088 0.02358,3.81299 -0.13125,5.42871c-4.72002,0.47461 -4.6957,-1.25391 -7.1373,-4.93359c-1.33418,-2.05078 -2.71392,-4.07227 -4.13818,-6.06152c-0.12261,2.21484 0.2603,9.28564 -0.40532,10.75049c-0.70693,0.5127 -2.68945,0.33398 -3.63926,0.31055c-0.25181,-2.62207 -0.173,-5.46094 -0.15967,-8.11084c-0.00161,-3.10547 0.03179,-6.20947 0.1002,-9.31348z" fill="#2e2d2e"/><path d="M141.24946,217.55273c4.41343,-0.37061 8.21733,0.61523 9.73931,5.28809c-1.47217,0.02637 -2.65723,0.02051 -4.12939,-0.04248c-2.62588,-2.50049 -6.11587,-2.80811 -8.03511,0.92578c-0.68745,1.3374 -0.53247,3.71924 -0.00293,5.12256c0.97471,2.58398 4.37344,3.3252 6.73315,2.31885c1.24189,-0.53174 1.87764,-1.71973 2.34053,-2.94434c-1.74478,-0.07617 -3.61289,-0.07324 -5.36528,-0.09082c-0.11323,-0.90381 -0.10767,-1.6084 -0.11338,-2.5166c0.00864,-0.01758 0.01274,-0.03809 0.02593,-0.05273c0.44795,-0.49219 7.90195,-0.23437 9.00059,-0.20947c0.04688,1.99805 0.25488,3.46729 -0.71484,5.3042c-2.31299,4.38721 -8.20532,5.4668 -12.31274,3.09229c-1.91836,-1.0957 -3.31201,-2.9209 -3.86411,-5.05957c-1.30503,-5.1167 1.41636,-9.9375 6.69829,-11.13574z" fill="#2e2d2e"/><path d="M161.49902,217.52783c2.77002,-0.09375 5.61621,0.04688 8.39355,0c1.15283,-0.01904 2.39941,-0.02051 3.5376,0.11133c0.05127,0.62695 0.21973,2.40381 -0.03516,2.84766c-2.03613,3.54346 -5.29102,7.73584 -7.49854,11.18701c2.26465,0.13916 5.26611,0.0249 7.64355,0.05713c0.01611,1.23779 -0.00879,1.9248 -0.1333,3.15527c-0.92432,0.14063 -3.21387,0.08789 -4.25684,0.08496l-7.62891,-0.02051c-0.29004,-2.89746 -0.06152,-3.28711 1.57617,-5.60742c1.97754,-2.80225 4.00635,-5.63232 5.91211,-8.48291c-2.13867,-0.2168 -5.29102,-0.12305 -7.51758,-0.11133c-0.06006,-1.24658 -0.07471,-1.9834 0.00732,-3.22119z" fill="#2e2d2e"/><path d="M223.00488,217.54395c1.62598,-0.14209 2.40234,-0.25195 4.02686,0.01611l0.02197,11.07568c-0.00146,1.68018 0.07617,4.77979 -0.12158,6.32227c-1.3623,0.13623 -2.3877,0.07324 -3.75879,-0.02344c-0.15234,-0.16553 -0.71338,-0.8042 -0.85693,-0.89502c-1.23193,-2.18994 -5.18701,-8.02588 -6.71631,-9.9624c-0.05273,1.13525 -0.07764,2.26904 -0.07617,3.4043c-0.12012,4.88379 1.79883,7.93945 -3.9668,7.4707c-0.29443,-5.21924 -0.05566,-12.09082 -0.08789,-17.4624c1.604,0.03223 2.35107,-0.10107 4.06641,0.07764c1.29492,1.75781 2.42871,3.65039 3.65625,5.45508c0.33984,0.49805 1.11475,1.75342 1.48975,2.13867c0.20801,0.66357 1.73584,2.63379 2.23096,3.2915c0.05859,-1.70508 0.06445,-3.41016 0.01904,-5.11523c0.04395,-1.78857 -0.06299,-4.10742 0.07324,-5.79346z" fill="#2e2d2e"/><path d="M87.65068,217.57471c2.0291,-0.23145 2.74468,-0.21094 4.76909,0.03809c0.30293,0.78369 0.82222,2.23828 1.18535,2.9707c0.94922,2.92676 2.05444,5.80664 3.09756,8.69971c0.61553,1.70654 1.58569,4.00049 1.92041,5.7583c-1.246,0.03369 -3.2335,0.25488 -4.17861,-0.60791c-0.98687,-0.90088 -0.14971,-2.39209 -1.68545,-2.80518c-1.49941,0.18018 -4.55991,0.09961 -6.13008,0.09375c-0.29707,0.60791 -0.33926,0.8291 -0.51211,1.49707c-0.77871,2.42432 -2.53989,1.86621 -4.71753,1.71533c0.14546,-0.58301 0.29546,-1.16455 0.45015,-1.74463c0.81328,-1.83838 1.58027,-4.23633 2.25513,-6.15967c0.87964,-2.46826 1.77627,-4.9292 2.68975,-7.38428c0.25708,-0.64893 0.5521,-1.45898 0.85635,-2.07129zM87.73579,228.65479c1.47026,0.04834 3.02637,0.02637 4.50366,0.0293c-0.28843,-1.37402 -1.30503,-4.64355 -1.97563,-5.90039c0.03442,-0.15674 -0.04526,-0.31641 -0.19102,-0.38379c-0.1459,-0.06592 -0.31846,-0.02197 -0.41411,0.10693c-0.0958,0.12891 -0.08877,0.30615 0.0167,0.42773c-0.7374,1.93213 -1.39219,3.7251 -1.9396,5.72021z" fill="#2e2d2e"/><path d="M90.26382,222.78369c0.67061,1.25684 1.68721,4.52637 1.97563,5.90039c-1.47729,-0.00293 -3.0334,0.01904 -4.50366,-0.0293c0.54741,-1.99512 1.2022,-3.78809 1.9396,-5.72021c0.08452,0.09668 0.21636,0.13623 0.34072,0.10547c0.12437,-0.03223 0.22017,-0.13184 0.24771,-0.25635z" fill="url(#color-2)"/><path d="M89.67539,222.93457c-0.10547,-0.12158 -0.1125,-0.29883 -0.0167,-0.42773c0.09565,-0.12891 0.26821,-0.17285 0.41411,-0.10693c0.14575,0.06738 0.22544,0.22705 0.19102,0.38379c-0.02754,0.12451 -0.12334,0.22412 -0.24771,0.25635c-0.12437,0.03076 -0.2562,-0.00879 -0.34072,-0.10547z" fill-opacity="0.56863" fill="#fefefe"/><path d="M81.84946,233.18994l-0.26558,-0.12598c0.31011,-0.49951 0.50684,-1.94971 0.63735,-2.61621l0.02095,0.32666c0.12773,-0.67822 0.63237,-3.39844 1.25391,-3.65625l0.20654,0.29004c0.00659,-0.00732 -0.0252,-2.51074 0.64116,-3.24316c0.48281,-0.53174 -0.07397,-1.16162 1.20571,-1.71387c0.17212,-0.38086 0.12686,-0.19043 0.09199,-0.59033l-0.28726,-0.01611c-0.16011,-1.32422 0.85298,-1.79883 1.29463,-2.73633l0.14546,0.5376c-0.91348,2.45508 -1.81011,4.91602 -2.68975,7.38428c-0.67485,1.92334 -1.44185,4.32129 -2.25513,6.15967z" fill-opacity="0.76078" fill="#fefefe"/><path d="M215.6001,224.07715c1.5293,1.93652 5.48438,7.77246 6.71631,9.9624c-1.20703,-0.19336 -4.39893,-6.63281 -5.77002,-7.87793c-0.3501,-0.12451 -0.21387,-0.11865 -0.57275,-0.05566c0.33838,1.34326 0.15674,2.06104 -0.03223,3.43506c-0.46875,-0.31641 -0.30762,-1.30078 -0.39844,-1.93066l-0.01904,-0.12891c-0.00146,-1.13525 0.02344,-2.26904 0.07617,-3.4043z" fill-opacity="0.85882" fill="#fefefe"/><path d="M220.68164,225.16113l0.2417,-0.05127c0.59473,0.6665 0.81592,1.86914 1.62598,1.77539l0.12451,-0.27979c-0.49365,-1.44434 -0.16699,-3.79687 0.00439,-5.39502c0.27832,0.90674 0.13037,0.99609 0.22705,1.88232l0.02637,0.24463c0.04541,1.70508 0.03955,3.41016 -0.01904,5.11523c-0.49512,-0.65771 -2.02295,-2.62793 -2.23096,-3.2915z" fill-opacity="0.63922" fill="#fefefe"/><path d="M86.11685,233.21924c0.17285,-0.66797 0.21504,-0.88916 0.51211,-1.49707c0.05728,0.54639 0.17534,0.93018 -0.09697,1.38281c-0.11704,0.03516 -0.30205,0.09961 -0.41514,0.11426z" fill-opacity="0.58431" fill="#fefefe"/><path d="M94.25493,251.77734c8.82568,-0.30762 18.03281,-0.06592 26.86084,0.38672c3.05024,0.15674 6.38423,-0.19775 9.39609,0.02783l-0.1563,0.11426c1.3106,1.229 24.85781,1.70215 28.46279,1.59082c3.00586,-0.0835 6.01025,-0.20068 9.01465,-0.35156l0.07031,0.35742l0.12158,0.00439c0.08057,-0.33398 0.07764,-0.36328 0.08203,-0.70898c0.2959,0.1333 0.29736,0.1333 0.55664,0.2915c1.16016,-0.0249 10.2876,-0.72803 10.70508,-1.1499l-0.43213,-0.15674c3.5332,-0.06152 7.06201,0.02344 10.59375,-0.01025c2.5415,-0.0249 5.5459,-0.44531 8.05811,-0.43359c7.60693,0.03369 15.34131,-0.13477 22.93652,0.0835c2.52393,0.07324 6.01318,-0.06592 8.34229,0.09961c-0.60645,0.12451 -1.39014,0.1377 -1.94678,0.38232c-2.25146,0.99316 -4.42529,1.48682 -6.75732,2.18262c-15.78662,4.70947 -35.43311,6.38525 -51.94043,7.0957c-5.14746,0.22119 -10.26123,0.41602 -15.41309,0.30176c-2.53711,-0.05713 -5.35107,0.28271 -7.83809,-0.15527c-1.54761,-0.271 -3.43257,-0.08643 -5.02896,-0.14502c-2.74863,-0.10107 -5.47866,-0.33545 -8.22349,-0.52441c-9.03662,-0.62402 -18.03838,-1.67725 -26.9748,-3.1582c-1.04033,-0.17432 -2.44849,-0.59033 -3.36182,-0.71484c-4.06626,-0.54785 -8.06748,-1.51611 -11.9688,-2.78906c-1.53633,-0.50098 -3.38159,-0.76025 -4.84058,-1.44434c-0.08774,-0.21094 -0.25063,-0.64307 -0.35112,-0.82617c3.67295,-0.16846 7.77056,0.06445 11.52759,-0.06592c-0.51035,-0.12012 -0.9772,-0.19629 -1.49458,-0.28418z" fill="url(#color-3)"/><path d="M55.71035,234.84375c-0.5647,0.41162 -3.20581,0.39111 -3.802,-0.1084c-0.31421,-1.49268 -0.37646,-16.49268 0.08394,-17.21338c0.79116,-0.26953 1.22227,-0.10107 1.94839,-0.20508c3.51064,-0.49951 3.70723,2.51221 4.8627,5.23828c0.42202,1.15137 1.03813,2.81104 1.60093,3.89941c0.47754,1.11475 0.83438,1.97607 1.21465,3.12158c1.23853,-2.58105 2.23784,-5.34521 3.37002,-7.97461c0.49219,-1.14258 1.10098,-2.91357 1.74097,-3.90674c1.15415,-0.52588 3.15674,-0.30908 4.4896,-0.26807c0.63296,0.59326 0.41895,2.96631 0.41792,3.88916l0.00527,8.45801c-0.00044,1.52344 0.06021,3.71777 -0.13315,5.1665c-1.10449,0.12744 -2.42725,0.15088 -3.39521,0.28271c-0.77798,-0.50244 -0.67646,-0.80566 -0.78882,-1.69189c0.10444,-2.92383 0.06079,-6.20215 0.06445,-9.15088c-0.50522,1.09131 -1.20952,3.1582 -1.68604,4.35498c-0.63354,1.62012 -1.49854,5.40381 -3.07939,6.20068c-0.70239,0.35303 -2.16724,0.24756 -2.77046,-0.41455c-0.50361,-1.2583 -3.35039,-8.43311 -3.44429,-9.15234l-0.32988,-0.53906c-0.1938,0.22705 -0.13052,0.37354 -0.15498,0.75c0.09844,2.34521 -0.16626,6.72656 0.04893,8.7041z" fill="#2e2d2e"/><path d="M237.83789,217.77539c0.29004,-0.31201 0.44971,-0.45703 0.99756,-0.42334c1.99805,0.12598 8.34521,-0.44531 9.71777,0.48779c0.19043,0.44531 0.16113,1.62451 -0.07178,2.04199c-1.15576,2.06689 -4.72119,-0.11426 -6.33398,1.15723c-0.1333,0.10547 -0.07031,0.74561 -0.06006,0.91113c-0.06152,0.84814 -0.01318,1.65234 0.02051,2.49902c1.64355,-0.02197 4.22461,-0.12598 5.78027,0.1582c0.0293,1.40771 0.3501,3.30322 -1.81348,3.14502c-1.37402,-0.09961 -2.61768,-0.14209 -3.99463,-0.11279l0.05273,4.06494c1.84131,-0.08496 4.64355,-0.19336 6.43213,0.06738c0.03516,1.01367 0.2373,2.32471 -0.34277,3.11279c-1.11621,0.3252 -8.60449,0.20654 -10.19238,0.21094c-0.479,-1.57324 -0.25635,-10.40479 -0.27246,-12.68555c0.09961,-1.17627 0.06592,-3.38086 0.08057,-4.63477z" fill="#2e2d2e"/><path d="M248.75098,216.55518c1.42383,1.0752 1.24365,3.89795 0.19189,5.05811c-1.16455,1.5498 -4.9541,-0.11719 -6.11719,1.12061l0.07324,0.29883c1.66992,0.84961 4.37402,-0.63135 5.50928,1.59668c-0.4043,0.79688 -0.11133,0.58887 -0.00586,1.65234c0.01758,-0.57715 0.00586,-0.83057 0.13916,-1.38428c0.66357,0.93164 0.04395,3.16846 -0.7998,3.76758c-1.36084,0.9668 -3.57422,-0.16406 -4.96582,0.55371l-0.37354,-0.29736c-0.08203,0.65039 -0.04395,1.2334 -0.02783,1.88672l0.17285,-0.03809l0.11133,-0.33984c1.95703,1.00928 5.83594,-1.41064 6.2915,1.75049l0.34131,-0.28125c0.375,0.83057 0.1582,3.86279 -1.0166,4.33594c-1.62305,0.65186 -9.37207,-0.02344 -10.24512,-1.13965c1.58789,-0.00439 9.07617,0.11426 10.19238,-0.21094c0.58008,-0.78809 0.37793,-2.09912 0.34277,-3.11279c-1.78857,-0.26074 -4.59082,-0.15234 -6.43213,-0.06738l-0.05273,-4.06494c1.37695,-0.0293 2.62061,0.01318 3.99463,0.11279c2.16357,0.1582 1.84277,-1.7373 1.81348,-3.14502c-1.55566,-0.28418 -4.13672,-0.18018 -5.78027,-0.1582c-0.03369,-0.84668 -0.08203,-1.65088 -0.02051,-2.49902l0.09961,0.15527c1.3667,-1.96875 4.20264,-0.1582 6.05273,-1.02979c0.49512,-0.23291 0.7251,-0.63721 0.90234,-1.13379c0.42334,-1.18945 0.15234,-2.31006 -0.39111,-3.38672z" fill-opacity="0.27451" fill="#fefefe"/><path d="M68.46709,216.3208c1.97607,-0.09668 3.46392,-0.36035 3.49717,2.1123l0.03135,2.60156l-0.35815,0.28125c0.00103,-0.92285 0.21504,-3.2959 -0.41792,-3.88916l0.00908,-0.26367c-0.92021,-0.54199 -5.10513,-0.64746 -5.47603,0.86426c-0.0186,0.07617 -0.27759,0.55518 -0.31655,0.63867c-1.0708,1.70654 -2.08257,7.12793 -3.87188,7.77832c-0.30322,-0.07031 -0.58608,-0.14795 -0.73726,-0.48779c-0.55342,-1.24365 -1.97256,-5.19434 -1.85464,-6.41748c0.33677,0.65332 0.3019,0.90381 0.53804,1.54395c0.39082,0.20654 0.19966,0.19629 0.49072,-0.14502c0.82764,-0.9668 3.44736,-3.90381 4.79077,-2.75684l0.03618,0.49072c1.01602,-2.0332 1.36187,-2.28662 3.63911,-2.35107z" fill="url(#color-4)"/><path d="M56.79536,235.57031c-0.07808,0.0791 -0.15762,0.15527 -0.23877,0.22998c-1.54819,1.41504 -6.20698,0.96973 -6.14883,-2.09473c0.03647,-1.92187 -0.00396,-3.91992 0.00923,-5.84473c0.00879,-1.29053 -0.26895,-1.83105 -0.14839,-3.35449c0.20479,0.38525 0.05815,1.57617 0.24946,2.02148c1.12104,2.61328 -1.88965,10.92041 3.41133,9.32227c1.04795,-0.31641 0.97148,0.2666 2.15259,-0.63135c0.59209,-1.54834 -0.09258,-4.15723 1.41064,-4.80029c0.49834,1.02246 1.56167,3.23584 1.90034,4.29346l0.46113,-0.19043c0.60322,0.66211 2.06807,0.76758 2.77046,0.41455c1.58086,-0.79687 2.44585,-4.58057 3.07939,-6.20068c0.50171,-0.25928 0.72964,-0.47168 1.23911,-0.46289l0.05142,0.24609l-0.07954,1.11475c-0.39609,0.05127 -0.50171,0.03662 -0.81724,0.28271c-0.00659,0.5376 0.18442,0.91406 -0.03735,1.37988c-0.19746,-0.12451 -0.11235,-0.03516 -0.22295,-0.29297c-0.9375,1.67725 0.02197,1.09424 -0.3416,1.78857l-0.19658,-0.21826c-0.8417,1.10596 -0.66694,3.63135 -2.92368,3.87451c-0.86338,0.09375 -1.37842,0.10986 -2.20547,-0.16113c-0.44561,-0.4248 -0.39229,-0.49658 -0.20771,-1.13672c-0.39976,0.09375 -0.25767,0.0293 -0.57686,0.30762c-1.33564,-1.24072 -1.20103,-3.23291 -2.06997,-3.65479c-0.12598,0.19336 -0.35361,3.20801 -0.35259,3.59473z" fill-opacity="0.2902" fill="#fefefe"/><path d="M245.55762,216.04395c0.86133,-0.49658 2.41846,-0.04102 3.19336,0.51123c0.54346,1.07666 0.81445,2.19727 0.39111,3.38672c-0.17725,0.49658 -0.40723,0.90088 -0.90234,1.13379c-1.8501,0.87158 -4.68604,-0.93896 -6.05273,1.02979l-0.09961,-0.15527c-0.01025,-0.16553 -0.07324,-0.80566 0.06006,-0.91113c1.61279,-1.27148 5.17822,0.90967 6.33398,-1.15723c0.23291,-0.41748 0.26221,-1.59668 0.07178,-2.04199c-1.37256,-0.93311 -7.71973,-0.36182 -9.71777,-0.48779c-0.54785,-0.03369 -0.70752,0.11133 -0.99756,0.42334c-0.07764,-0.14941 -0.06445,-0.39697 -0.07764,-0.59473c0.51123,-0.08057 0.89063,-0.03369 1.17334,-0.32666c2.80078,-0.06152 3.9873,0.01758 6.62402,-0.81006z" fill-opacity="0.07059" fill="#fefefe"/><path d="M71.99561,221.03467c0.00439,0.84521 -0.02549,2.10791 0.03823,2.91797c0.01187,-0.80273 -0.01172,-5.98242 0.1207,-6.30029c0.21548,0.14941 0.37617,0.22852 0.37866,0.55664c0.02827,3.67529 -0.12114,7.52051 -0.29238,11.19287c-0.07515,1.61426 0.9334,6.09521 -1.36172,6.00879c-0.72803,-0.02783 -2.06016,-0.04687 -2.76475,-0.1875c0.96797,-0.13184 2.29072,-0.15527 3.39521,-0.28271c0.19336,-1.44873 0.13271,-3.64307 0.13315,-5.1665l-0.00527,-8.45801z" fill-opacity="0.55294" fill="#fefefe"/><path d="M56.40981,225.36914c0.0939,0.71924 2.94067,7.89404 3.44429,9.15234l-0.46113,0.19043c-0.33867,-1.05762 -1.402,-3.271 -1.90034,-4.29346l-0.06826,-0.29736c-0.57319,-0.09375 -0.80889,0.35156 -1.0853,0.79541c-0.01582,1.07666 0.00776,2.30859 -0.22295,3.34863l-0.14224,0.01904c-0.21519,-1.97754 0.04951,-6.35889 -0.04893,-8.7041z" fill-opacity="0.03137" fill="#fefefe"/><path d="M65.43604,218.66602c0.03896,-0.0835 0.29795,-0.5625 0.31655,-0.63867c0.3709,-1.51172 4.55581,-1.40625 5.47603,-0.86426l-0.00908,0.26367c-1.33286,-0.04102 -3.33545,-0.25781 -4.4896,0.26807c-0.63999,0.99316 -1.24878,2.76416 -1.74097,3.90674c-1.13218,2.62939 -2.13149,5.39355 -3.37002,7.97461c-0.38027,-1.14551 -0.73711,-2.00684 -1.21465,-3.12158c0.27261,0.3208 0.37002,0.40576 0.69053,0.68262c0.92974,0.14648 1.23779,-0.36621 1.57954,-1.16162c0.98086,-2.28223 2.16855,-4.90869 2.76167,-7.30957z" fill-opacity="0.0549" fill="#fefefe"/><path d="M58.80337,222.55518l0.10474,-0.47314c-0.14912,-0.39697 -1.35996,-5.67773 -1.34209,-5.84619c0.55869,0.38672 1.28774,2.55469 1.40625,3.30322c-0.11792,1.22314 1.30122,5.17383 1.85464,6.41748c0.15117,0.33984 0.43403,0.41748 0.73726,0.48779c1.78931,-0.65039 2.80107,-6.07178 3.87188,-7.77832c-0.59312,2.40088 -1.78081,5.02734 -2.76167,7.30957c-0.34175,0.79541 -0.6498,1.30811 -1.57954,1.16162c-0.32051,-0.27686 -0.41792,-0.36182 -0.69053,-0.68262c-0.56279,-1.08838 -1.17891,-2.74805 -1.60093,-3.89941z" fill-opacity="0.13725" fill="#fefefe"/><path d="M80.80298,251.91064c1.67285,-0.17578 4.78198,-0.0293 6.52617,-0.06152c2.10615,-0.03955 4.88555,-0.22119 6.92578,-0.07178c0.51738,0.08789 0.98423,0.16406 1.49458,0.28418c-3.75703,0.13037 -7.85464,-0.10254 -11.52759,0.06592c-0.02139,0.06006 -0.09287,0.71631 -0.10605,0.82617c-0.59355,-0.03076 -0.55225,-0.80566 -1.20029,-0.80859c-4.73687,-0.01318 -9.29824,0.20508 -14.02529,-0.25342c0.46011,-0.2168 10.44741,0.0835 11.9127,0.01904z" fill-opacity="0.30588" fill="#fefefe"/><path d="M240.85254,216.1626c1.57031,0.11572 3.10107,-0.07764 4.70508,-0.11865c-2.63672,0.82764 -3.82324,0.74854 -6.62402,0.81006c-0.60205,-0.02637 -0.62988,0.01465 -1.17334,0.32666c0.01318,0.19775 0,0.44531 0.07764,0.59473c-0.01465,1.25391 0.01904,3.4585 -0.08057,4.63477c-0.38965,-1.42676 -0.04834,-3.46729 -0.36182,-4.09131c-0.18164,0.33252 -0.09814,1.29053 -0.12744,1.83252c-0.20068,-0.36182 -0.27686,-1.08691 -0.32227,-1.52051c-0.25928,-2.48291 1.93945,-2.43457 3.90674,-2.46826z" fill-opacity="0.3451" fill="#fefefe"/><path d="M65.70396,228.73535c0.47651,-1.19678 1.18081,-3.26367 1.68604,-4.35498c-0.00366,2.94873 0.03999,6.22705 -0.06445,9.15088c-0.21826,-1.61719 0.01685,-3.0791 -0.33105,-5.0127l-0.05142,-0.24609c-0.50947,-0.00879 -0.7374,0.20361 -1.23911,0.46289z" fill-opacity="0.00784" fill="#f0eff0"/><path d="M55.97388,234.28418l0.14224,-0.01904c0.23071,-1.04004 0.20713,-2.27197 0.22295,-3.34863c0.27642,-0.44385 0.51211,-0.88916 1.0853,-0.79541l0.06826,0.29736c-1.50322,0.64307 -0.81855,3.25195 -1.41064,4.80029l-0.37163,-0.375z" fill-opacity="0.06667" fill="#fefefe"/><path d="M237.76025,217.18066c0.54346,-0.31201 0.57129,-0.35303 1.17334,-0.32666c-0.28271,0.29297 -0.66211,0.24609 -1.17334,0.32666z" fill-opacity="0.22353" fill="#fefefe"/><path d="M55.92495,225.58008c0.02446,-0.37646 -0.03882,-0.52295 0.15498,-0.75l0.32988,0.53906z" fill-opacity="0.01961" fill="#f0eff0"/><path d="M155.66309,84.84814c0.03662,-0.00674 0.07324,-0.01348 0.11133,-0.02021l0.18604,-0.02871c1.50146,-0.24141 5.46387,-0.09551 7.11475,-0.0731c0.41162,0.26104 1.78857,0.22661 2.33057,0.21592c-0.22266,0.26792 -0.78662,0.35771 -1.08252,0.49644c-1.6333,0.54272 -3.63867,0.62739 -4.55859,2.39883c-1.22754,2.36411 -0.71045,6.26396 -0.55371,8.8812c0.13477,2.37788 0.25049,4.75664 0.34717,7.13628c0.11279,2.6168 0.44824,3.923 -0.96094,6.2833c-1.27588,2.13823 -2.71582,4.16191 -3.99463,6.28198c-0.19922,-4.43862 -0.2915,-8.84663 -0.57275,-13.29595c-0.20068,-3.16729 0.1084,-7.50762 -0.55225,-10.62583c-1.51318,2.31636 -3.50098,7.5936 -4.70361,10.38735l-10.95923,25.3314c-1.01133,2.35913 -2.01079,4.72354 -2.9981,7.09277c-0.59429,1.41636 -1.36055,3.40972 -2.12153,4.66934l-0.36797,0.05845c-1.05688,-0.37485 -1.53149,-1.98926 -1.95806,-2.94507c-1.1373,-2.54941 -2.37246,-5.06836 -3.57466,-7.59214l-12.36226,-26.36528c-1.51787,-3.18457 -3.13037,-7.20938 -4.93125,-10.11416c-0.32871,1.99556 -0.13784,3.90981 -0.26895,5.90449c-0.37983,5.77749 -0.44194,11.60024 -0.53657,17.39473l-0.15527,9.65259c-0.06694,3.15483 -0.52354,8.12651 1.02876,10.98091c1.21465,2.23345 4.73862,2.46562 7.03931,3.02607c-2.2084,0.50215 -6.55415,0.21606 -8.9395,0.19907c-1.68823,-0.01216 -6.60352,0.24214 -7.97798,-0.08701c0.16641,-0.86807 5.29292,-0.47007 6.30117,-4.85361c0.81753,-3.5543 0.65552,-6.37822 0.70825,-9.95112l0.18252,-13.29536l0.36738,-16.19062c0.0397,-2.37612 0.18984,-4.72236 0.0999,-7.09937c-2.86846,-3.05479 -4.1915,-2.85439 -7.89067,-3.7623c2.746,-0.33911 8.1564,-0.32358 11.02866,-0.15381c0.81899,0.04834 1.62964,0.84932 2.04302,1.53794c2.30361,3.83716 4.33652,8.50854 6.25928,12.56821l10.89712,22.85464c1.24644,2.63364 3.12598,7.3021 4.74023,9.50435c1.36099,-2.41318 3.73242,-8.23887 4.9626,-11.02529l10.9585,-24.9271c1.16895,-2.58999 3.38525,-8.71582 5.31445,-10.4502z" fill="#7761fd"/><path d="M177.42188,122.9584c4.69482,0.03472 9.42188,-0.11763 14.11816,-0.04805c0.59619,0.00894 1.37549,0.02402 1.79297,0.45776c0.20801,1.00547 -3.41602,5.95928 -4.21436,7.16338l-6.58008,9.94702l-17.12256,25.74902c-2.04346,3.05566 -4.90137,7.1748 -6.79102,10.39453c-0.11572,0.19775 -0.06152,0.19482 0.07617,0.4541c1.03711,0.39404 6.41309,0.16699 7.90869,0.19629c3.87891,0.0249 7.63623,0.00439 11.52539,0.06006c5.97803,0.08496 13.05322,0.24756 16.00781,-6.12451c0.35596,-0.76611 1.2583,-3.64893 1.70801,-3.95215c0.271,0.74854 0.05127,2.02734 -0.03662,2.84766c-0.20508,1.94678 -0.48926,6.39258 -1.24951,8.24561c-0.26074,0.63721 -4.4502,0.40723 -5.47852,0.3999l-8.27051,-0.03369l-21.16699,-0.07764c-1.40479,-0.00879 -7.57617,0.25488 -8.37891,-0.27686c-0.2666,-1.14551 2.4917,-4.72266 3.26953,-5.88428l6.13037,-9.13477l18.72949,-27.8269c1.2334,-1.83003 6.68555,-9.41001 7.0415,-10.99556l-0.18164,-0.24199c-1.88525,-0.70752 -9.15527,0.42715 -10.00342,-0.49541c0.24756,-0.61743 0.56836,-0.70503 1.16602,-0.82354z" fill="#7761fd"/><path d="M130.55083,198.07178l-0.08936,0.04395l0.31846,0.41162l-0.40063,0.26807c-0.81797,0.0791 -0.82925,-0.40283 -1.59712,-0.44092c0.20596,0.23438 0.13374,0.09961 0.21489,0.4043c-0.37954,0.24609 -0.51299,0.20654 -0.96929,0.23438c-0.29604,-0.28271 -0.36855,-0.38965 -0.73872,-0.56543c-0.09346,0.09668 -0.53232,0.56104 -0.57715,0.55518c-0.59751,-0.06299 -1.92085,-0.28418 -2.47617,-0.27979c-1.04414,0.01025 -1.79663,0.27393 -2.85879,0.3252c-0.33091,-0.34863 -0.17856,-0.27539 -0.58945,-0.43359c0.02695,0.19629 0.03032,0.09961 -0.00894,0.29004c-1.25889,0.4541 -2.78423,0.11572 -4.02319,0.30176c-0.25151,0.31055 -0.30601,0.43359 -0.65859,0.61963c-0.32168,-0.34277 -0.17139,-0.26074 -0.57891,-0.4248l-0.34175,0.19775c0.80801,0.63135 2.01416,0.06445 2.85571,0.20947l0.1415,0.2666c-0.71104,0.12012 -0.27598,0.33105 -1.00166,0.49512l-0.46758,-0.41748c-0.88301,0.06299 0.0249,0.07324 -0.76201,0.54053l-0.45527,-0.41309c-0.61846,0 -0.96064,0.39551 -1.55625,0.46436c-2.01006,0.23145 -3.95918,-0.6665 -5.83931,0.22705c-0.7314,0.34717 -2.80137,-0.5625 -4.03154,0.06885c0.53818,0.04102 1.76733,0.07324 1.95498,0.63721c-0.44268,0.03076 -1.0188,-0.08057 -1.32056,0.04541c-1.53311,0.94189 -5.80854,0.08057 -7.06978,0.53613c-2.03833,0.73535 -9.36475,1.44434 -10.57104,2.2793c-0.30044,0.5874 -0.29297,1.06494 -0.32036,1.73145l-0.0085,0.24609l-0.15542,-0.04834c-0.11528,-0.83057 -0.17607,-1.57324 -1.10347,-1.74609c-0.95332,0.30322 -1.04048,0.48779 -1.09028,1.36523l-0.13389,0.04688c-0.20229,-0.58008 -0.01992,-0.66797 -0.48208,-0.98291c-1.18579,0.02344 -2.44863,0.78516 -3.64307,0.9375l0.1043,-0.19482c1.63887,-0.90674 4.20161,-1.68018 6.07983,-1.75928l0.18896,-0.00586l0.27949,-0.51855c2.2667,-0.33252 4.6147,-0.75586 6.82251,-1.37695c3.62168,-1.021 7.31733,-1.3916 11.01108,-2.13574c2.81484,-0.56689 5.89482,-0.69727 8.74922,-1.17627c0.91436,-0.15234 1.82256,-0.30322 2.72974,-0.52441c4.51113,-0.45117 9.22427,-1.06641 13.73613,-1.32861c4.97461,-0.28857 9.70283,-0.66797 14.66338,-0.58887l-0.40869,-0.21387c2.21309,-0.31494 5.97466,-0.17139 8.29937,-0.24463c1.47656,-0.04834 2.92969,0.19629 4.604,0.01172c1.99365,0.21533 4.1499,-0.32666 6.05273,-0.14941c2.44043,0.22705 4.97168,0.36182 7.396,0.69287l0.31348,-0.38086l2.17236,0.16699l-0.2168,0.03223c1.03564,0.06592 5.83594,0.25781 6.45264,0.38086c0.03516,0.0293 0.06885,0.05859 0.104,0.08643c1.71826,0.38086 3.77051,0.14502 5.52539,0.41895c2.88428,0.44971 5.84912,0.63867 8.74365,1.01221c1.72412,0.22266 3.11426,0.60791 4.75928,0.82324c3.44092,0.45117 6.81885,0.91699 10.24512,1.45605c0.74707,0.11719 1.35938,0.4248 1.96143,0.52441c1.18213,0.19629 2.41992,0.25928 3.60352,0.50684c3.77051,0.79248 7.49414,1.89697 11.27051,2.6499c1.37256,0.27246 2.98535,1.13086 4.39307,1.32422c0.36914,0.0498 0.68262,0.15088 1.00195,0.33691c-0.28271,0.09668 -0.64746,0.22852 -0.95361,0.1377c-3.0249,-0.89795 -6.1333,-1.38867 -9.17285,-2.23828c-1.02539,-0.28564 -2.09473,-0.20068 -3.12891,-0.37061c-1.53809,-0.35596 -1.99805,-0.88037 -3.68408,-1.04883c-1.09863,-0.10986 -6.37354,-0.52295 -6.96387,-0.80713l0.05566,-0.43359c-0.83936,-0.00293 -0.54346,0.48047 -1.40479,0.38672c0.29297,-0.32959 0.40137,-0.29297 0.86426,-0.44971c-1.83984,-0.37939 -3.31055,0.03662 -5.22803,-0.51855c-0.70312,-0.20361 -2.47412,0.65186 -3.33252,-0.2168c-0.23584,-0.14355 -3.16406,0.19189 -3.91846,0.15674c-0.09814,-0.38818 -0.09668,-0.3457 -0.31641,-0.69141l0.16406,-0.10547c0.56689,0.28711 0.4043,0.31641 0.8877,0.20215l0.28857,-0.31055c-0.88037,-0.50977 -2.74072,-0.479 -3.78369,-0.38965c-1.0459,0.08936 -2.53418,-0.6123 -3.33398,-0.53174c-2.10645,0.2124 -4.05615,0.09229 -6.15967,-0.24902c-1.73145,-0.28125 -0.93164,1.17334 -2.16504,0.00732l0.2373,-0.31934c-0.42187,-0.02783 -0.79248,0.09229 -1.20703,0.18896l0.08203,-0.03662c-0.42627,0.10547 -1.22168,0.37207 -1.58643,0.28271l0.65479,-0.45996c-1.03564,-0.10547 -1.3374,0.92285 -2.20898,0.25928c-0.5127,-0.38965 -1.4458,-0.44824 -2.10059,-0.40283l0.39111,0.27686c-0.2124,0.31494 -0.10986,0.22119 -0.4292,0.42334c-0.4292,-0.40137 -0.81006,-0.86426 -1.36377,-0.88916l0.27539,0.22852l-0.0542,-0.06152l-0.17139,0.18604l-1.13672,0.00732l0.09082,0.25049c-0.18604,0.36035 -0.08936,0.25342 -0.38086,0.5127l-0.13037,-0.12451l0.03223,-0.24902c-0.38965,-0.09375 -1.94238,-0.53027 -2.21631,-0.55518c-0.01025,0.37646 0.0498,1.06055 -0.14502,1.27881c-0.3252,-0.44678 0.22412,-0.49512 -0.28418,-1.00049l-0.63428,-0.06006l0.04834,-0.15527l0.54346,-0.23437c-0.39258,-0.00146 -0.68848,0.04541 -1.04443,0.22559c-1.10889,0.56104 -1.875,-0.46143 -3.28857,-0.41455c-1.29639,-0.01025 -2.61182,0.45996 -3.87598,0.5625c-0.60645,0.0498 -1.57471,-0.27246 -2.29687,-0.26953c-2.43018,0.01172 -4.84131,0.06885 -7.26709,0.22266c-0.62988,0.03955 -1.9248,-0.4292 -2.60156,-0.46729c-0.34277,-0.04102 -1.40039,-0.26074 -1.58906,-0.04395l0.17329,0.19922c-1.01309,0.21387 -2.08008,0.5625 -2.9376,0.13916c-0.26221,-0.13037 -1.20923,-0.3252 -1.51802,-0.29883l-0.08394,0.12451c0.1604,0.08496 0.32183,0.16846 0.48413,0.25049c-0.42451,0.20068 -1.19751,0.01465 -1.71167,-0.05713c0.10269,0.31348 0.06533,0.18164 0.40869,0.44824l-0.1834,0.08203c-0.59604,-0.24316 -1.60767,-0.76318 -2.2251,-0.50537c-0.90308,0.37793 -1.2501,1.13818 -2.21191,0.37354l0.0293,-0.24902c0.44473,-0.00293 0.27744,-0.02051 0.71147,0.15527l0.02212,-0.12598c-1.33301,-0.80566 -1.61367,0.49365 -2.53799,0.5918c-0.45381,-0.37354 -0.19702,-0.24902 -0.82075,-0.33545l0.71528,-0.23145c-0.34907,-0.28857 -0.35288,-0.25049 -0.81475,-0.30322c-0.80933,-0.01611 -2.10469,-0.16113 -2.75918,0.22852z" fill-opacity="0.08235" fill="#fefefe"/><path d="M176.10938,101.31138c0.96387,0.17988 1.47363,0.63457 2.19727,1.24922c-0.71338,1.68105 -3.26807,5.55908 -4.31982,7.23794l-7.13965,11.55278l-17.90918,28.77466c-2.83711,4.54834 -5.67129,9.45117 -8.5979,13.8999c-1.11021,-0.271 -1.44888,-0.5376 -2.29116,-1.31104c2.16489,-3.97412 5.89951,-9.62988 8.34873,-13.60254l16.98955,-27.43506l8.75537,-14.11641c0.93457,-1.5019 2.99121,-5.07188 3.9668,-6.24946z" fill="#029686"/><path d="M130.55083,198.07178c0.65449,-0.38965 1.94985,-0.24463 2.75918,-0.22852l-0.38862,0.41162l0.09009,0.17725l0.24507,0.02783l0.25518,0.24023l-0.09932,-0.23877l0.16465,0.12744c-0.69668,0.42773 -2.39238,-0.00146 -3.02622,-0.51709z" fill-opacity="0.15686" fill="#fefefe"/><path d="M163.0752,84.72612c1.14844,-0.02666 3.15088,-0.12759 4.18652,0.25181l-0.00293,0.11191l0.09375,-0.04512l-0.17139,-0.07471l-0.19629,0.18926c-1.13818,0.24009 -1.48975,0.25869 -2.66162,0.2792c0.2959,-0.13872 0.85986,-0.22852 1.08252,-0.49644c-0.54199,0.01069 -1.91895,0.04512 -2.33057,-0.21592z" fill-opacity="0.98039" fill="#5c4cd9"/></g></svg></svg>